<svg width="94" height="91" viewBox="0 0 94 91" fill="none" xmlns="http://www.w3.org/2000/svg">
<path d="M30.9566 56.3716C34.7792 56.3716 37.8781 53.2728 37.8781 49.4501C37.8781 45.6275 34.7792 42.5287 30.9566 42.5287C27.134 42.5287 24.0352 45.6275 24.0352 49.4501C24.0352 53.2728 27.134 56.3716 30.9566 56.3716Z" stroke="white" stroke-width="3" stroke-miterlimit="10"/>
<path d="M11.1812 64.2819C15.0038 64.2819 18.1027 61.183 18.1027 57.3604C18.1027 53.5378 15.0038 50.439 11.1812 50.439C7.35861 50.439 4.25977 53.5378 4.25977 57.3604C4.25977 61.183 7.35861 64.2819 11.1812 64.2819Z" stroke="white" stroke-width="3" stroke-miterlimit="10"/>
<path d="M18.1025 89.9902L22.7261 68.4249C23.4914 64.8554 26.0128 63.0459 29.9679 62.3043L41.8332 60.3268L53.5936 49.7073C53.5936 49.7073 57.4954 56.3717 53.1764 60.4494L44.6946 68.8441L31.7238 72.8091" stroke="white" stroke-width="3" stroke-miterlimit="10"/>
<path d="M35.8994 89.9901L39.8545 70.2145" stroke="white" stroke-width="3" stroke-miterlimit="10"/>
<path d="M75.5289 62.3043C79.3515 62.3043 82.4503 59.2055 82.4503 55.3829C82.4503 51.5603 79.3515 48.4614 75.5289 48.4614C71.7063 48.4614 68.6074 51.5603 68.6074 55.3829C68.6074 59.2055 71.7063 62.3043 75.5289 62.3043Z" stroke="white" stroke-width="3" stroke-miterlimit="10"/>
<path d="M92.1741 89.9902L87.7425 74.5751C86.9771 71.0056 84.7583 68.2371 78.4954 68.2371C74.21 68.2371 54.7646 68.2371 54.7646 68.2371C54.7646 68.2371 56.0837 76.1473 62.6749 76.1473H78.4954" stroke="white" stroke-width="3" stroke-miterlimit="10"/>
<path d="M77.589 89.9901L72.562 76.1472" stroke="white" stroke-width="3" stroke-miterlimit="10"/>
<path d="M2 89.9902L4.92675 76.3352C5.69206 72.7657 8.21343 70.9562 12.1685 70.2146L22.0563 68.2371" stroke="white" stroke-width="3" stroke-miterlimit="10"/>
<path d="M32.2332 8.36829L4.89355 20.0695L13.8954 27.0285L12.6732 38.2452L40.0169 26.544" stroke="white" stroke-width="3" stroke-miterlimit="10"/>
<path d="M50.9734 52.0843L29.0562 1" stroke="white" stroke-width="3" stroke-miterlimit="10"/>
<path d="M57.6368 68.2232L54.0259 59.4784" stroke="white" stroke-width="3" stroke-miterlimit="10"/>
<path d="M66.6307 89.9901L60.9175 76.1571" stroke="white" stroke-width="3" stroke-miterlimit="10"/>
</svg>
