<svg width="97" height="87" viewBox="0 0 97 87" fill="none" xmlns="http://www.w3.org/2000/svg">
<path d="M8.67155 24.9723L2 23.0048V16.9635L45.046 2.3957C46.5442 1.8681 48.1734 1.8681 49.6615 2.3957L94.6328 16.9635V23.0048L49.0131 37.836C47.7283 38.2891 46.3306 38.2891 45.0539 37.836L15.0088 27.0524" stroke="white" stroke-width="3" stroke-miterlimit="10"/>
<path d="M46.3027 16.9656L15.6593 26.7625C13.6234 27.3404 12.0688 28.9656 12.0688 33.0756V57.2407" stroke="white" stroke-width="3" stroke-miterlimit="10"/>
<path d="M56.3715 56.7834C53.8523 57.0774 51.1397 57.2406 48.3164 57.2406C34.9713 57.2406 24.1514 53.634 24.1514 49.1856V31.0618" stroke="white" stroke-width="3" stroke-miterlimit="10"/>
<path d="M72.4814 31.0618V43.1443" stroke="white" stroke-width="3" stroke-miterlimit="10"/>
<path d="M90.1603 64.1255L62.4126 43.9639V78.1854C62.4126 79.2245 63.2988 79.5809 64.1284 78.7754L71.8973 71.2661L79.3948 84.4824C80.0251 85.5134 81.5133 85.7369 82.7075 84.9858L85.8407 83.0148C87.0127 82.2758 87.4779 80.8438 86.8899 79.8128L79.6869 67.3054H89.117C90.3071 67.3095 91.0664 64.7317 90.1603 64.1255Z" stroke="white" stroke-width="3" stroke-miterlimit="10"/>
</svg>
