<svg width="74" height="111" viewBox="0 0 74 111" fill="none" xmlns="http://www.w3.org/2000/svg">
<path d="M41.6675 86H55.6675C56.9578 86 58.0008 87.043 58.0008 88.3333V97.6667" stroke="white" stroke-width="3" stroke-miterlimit="10"/>
<path d="M15.9985 97.6667V88.3333C15.9985 87.043 17.0415 86 18.3319 86H36.9985" stroke="white" stroke-width="3" stroke-miterlimit="10"/>
<path d="M36.9997 97.6667H13.6663C12.376 97.6667 11.333 98.7097 11.333 100V109.333H62.6663V100C62.6663 98.7097 61.6233 97.6667 60.333 97.6667H41.6663" stroke="white" stroke-width="3" stroke-miterlimit="10"/>
<path d="M27.667 69.6667V86.0001" stroke="white" stroke-width="3" stroke-miterlimit="10"/>
<path d="M46.333 69.6667V86.0001" stroke="white" stroke-width="3" stroke-miterlimit="10"/>
<path d="M37 72C56.33 72 72 56.33 72 37C72 17.67 56.33 2 37 2C17.67 2 2 17.67 2 37C2 56.33 17.67 72 37 72Z" stroke="white" stroke-width="3" stroke-miterlimit="10"/>
<path d="M37.0025 18L41.9353 31.0669L55 31.7517L44.9857 40.9353L48.1242 54L37.0025 47.0359L25.8764 54L29.017 40.9353L19 31.7517L32.0652 31.0669L37.0025 18Z" stroke="white" stroke-width="3" stroke-miterlimit="10" stroke-linejoin="round"/>
</svg>
