<svg width="227" height="200" viewBox="0 0 227 200" fill="none" xmlns="http://www.w3.org/2000/svg">
<path d="M33.8176 63.9179C30.5332 65.4148 27.2875 66.8944 23.9474 68.4169C31.0093 81.3857 38.0401 94.2977 45.0921 107.248C42.3491 108.674 39.5997 110.103 36.8106 111.552C28.1788 96.5694 19.7721 81.5 11.5496 66.2705C20.7107 61.7612 29.9196 57.4308 39.4662 53.7458C47.5372 68.462 55.2368 83.3252 63.0131 98.1925C60.1227 99.6156 57.2512 101.029 54.3278 102.468C47.4994 89.6345 40.6732 76.8037 33.8176 63.9179Z" fill="black"/>
<path d="M90.6704 97.2187C93.6211 96.4722 96.5224 95.8753 99.5193 96.4933C101.252 96.8508 102.63 97.8353 103.899 98.9928C104.331 99.3864 104.802 99.7395 105.293 100.143C105.592 99.9026 106.025 99.5379 106.474 99.1937C108.807 97.4081 111.501 96.448 114.367 95.8674C116.435 95.4479 118.504 95.2615 120.57 95.8393C123.529 96.6671 125.598 98.5852 127.197 101.077C128.345 102.868 128.94 104.876 129.628 106.851C132.539 115.203 135.462 123.55 138.373 131.901C139.395 134.831 139.714 137.801 138.705 140.798C138.424 141.632 137.983 142.415 137.568 143.325C137.121 142.776 136.766 142.344 136.415 141.909C134.095 139.033 131.773 136.158 129.46 133.276C129.287 133.061 129.146 132.802 129.058 132.542C126.205 124.108 123.367 115.668 120.503 107.238C120.252 106.501 119.902 105.776 119.476 105.12C118.533 103.669 117.131 103.176 115.427 103.514C114.017 103.794 112.737 104.334 111.777 105.434C111.033 106.287 110.735 107.298 110.783 108.404C110.792 108.607 110.916 108.821 111.035 109C112.344 110.979 113.678 112.942 114.973 114.929C115.771 116.154 116.519 117.413 116.815 118.867C117.115 120.343 116.44 121.216 114.896 121.348C113.798 121.442 112.698 121.519 111.6 121.608C111.467 121.619 111.336 121.657 111.094 121.703C115.004 128.229 118.881 134.701 122.732 141.128C120.529 141.688 118.309 142.253 116.024 142.834C107.288 127.854 98.8986 112.61 90.6704 97.2187ZM99.9992 102.202C100.855 103.718 101.671 105.17 102.493 106.618C104.058 109.375 105.624 112.131 107.199 114.883C107.275 115.017 107.446 115.203 107.561 115.195C108.526 115.13 109.492 115.051 110.45 114.922C110.973 114.852 111.25 114.439 111.102 113.942C110.926 113.349 110.717 112.75 110.414 112.212C109.625 110.812 108.804 109.427 107.945 108.067C107.024 106.607 106.092 105.149 105.078 103.751C103.829 102.03 101.999 101.913 99.9992 102.202Z" fill="black"/>
<path d="M106.213 52.5558C103.608 53.23 101.039 53.895 98.4223 54.572C98.2316 53.9522 98.0468 53.3456 97.8587 52.7401C97.4139 51.3095 97.0186 49.8618 96.5108 48.4528C95.5823 45.8764 93.7909 45.0197 91.1107 45.7971C89.7937 46.1791 88.6319 46.7731 88.016 48.0683C87.508 49.1372 87.5927 50.237 87.9049 51.3295C89.3154 56.2635 90.7334 61.1955 92.1566 66.1261C93.4194 70.501 94.6861 74.8749 95.9701 79.2438C96.1404 79.8233 96.3699 80.3994 96.6646 80.9276C97.4141 82.2714 98.595 82.9499 100.172 82.869C101.547 82.7985 102.823 82.3843 103.939 81.5897C105.443 80.5196 105.787 79.005 105.352 77.3487C104.795 75.228 104.103 73.1411 103.468 71.0397C103.285 70.4318 103.097 69.825 102.891 69.1483C105.546 68.4194 108.163 67.7012 110.835 66.9677C110.963 67.3506 111.084 67.6942 111.194 68.041C111.951 70.4156 112.787 72.7694 113.438 75.1714C114.183 77.9171 114.132 80.6649 112.873 83.2998C111.938 85.2588 110.448 86.7376 108.566 87.82C105.954 89.3215 103.201 90.4971 100.192 91.0095C98.7212 91.2602 97.2406 91.3311 95.7558 91.1477C95.5849 91.1265 95.3787 91.0259 95.2737 90.8964C91.7684 86.5725 88.2723 82.2415 84.7814 77.907C84.6541 77.749 84.5525 77.5527 84.5002 77.3586C82.4619 69.7829 80.4019 62.2126 78.408 54.6255C77.0085 49.2997 78.9047 44.5668 83.6096 41.5355C86.6035 39.6065 89.8832 38.4735 93.5047 38.4211C97.7585 38.3595 100.858 40.2457 102.976 43.7962C103.923 45.3843 104.487 47.1183 105.037 48.8599C105.424 50.0864 105.817 51.3111 106.213 52.5558Z" fill="black"/>
<path d="M87.8366 97.9824C88.9315 100.054 90.0015 102.078 91.0971 104.15C86.6289 105.657 82.3346 107.484 78.0684 109.518C80.176 113.512 82.2692 117.479 84.3597 121.441C87.8555 119.851 91.3065 118.283 94.7886 116.7C96.0108 118.963 97.1817 121.131 98.34 123.276C94.854 124.885 91.4095 126.476 87.9123 128.09C90.5584 132.965 93.1678 137.773 95.7961 142.615C100.123 140.506 104.474 138.543 108.984 136.859C110.327 139.206 111.657 141.529 112.962 143.81C109.326 145.349 105.683 146.819 102.105 148.427C98.5302 150.034 95.0209 151.779 91.3734 153.515C83.0422 138.087 74.6986 122.636 66.323 107.125C73.3595 103.669 80.3361 100.298 87.8366 97.9824Z" fill="black"/>
<path d="M125.352 52.4591C123.078 46.0088 120.809 39.5748 118.514 33.0672C120.186 32.8885 121.795 32.7165 123.404 32.5447C123.434 32.5415 123.464 32.5427 123.494 32.5417C123.853 32.5314 124.295 32.3926 124.547 32.548C124.78 32.6914 124.811 33.1498 124.929 33.4703C130.543 48.741 136.156 64.0116 141.769 79.2825C141.835 79.4614 141.894 79.6427 141.966 79.8505C139.79 80.1494 137.642 80.4446 135.453 80.7453C135.119 79.8177 134.78 78.8861 134.447 77.9528C132.286 71.9006 130.125 65.8484 127.97 59.7943C127.862 59.4912 127.772 59.2763 127.354 59.3477C125.117 59.7287 122.876 60.0847 120.636 60.4511C120.608 60.4554 120.584 60.4793 120.506 60.524C122.987 67.7438 125.472 74.9748 127.961 82.2191C125.411 82.8513 122.894 83.4753 120.297 84.119C115.01 68.0166 109.722 51.9134 104.415 35.7504C105.648 35.4756 106.822 35.2043 108.001 34.9542C109.168 34.7067 110.34 34.4803 111.562 34.2344C111.676 34.5659 111.787 34.8831 111.895 35.2014C113.925 41.1748 115.958 47.1475 117.976 53.1247C118.102 53.496 118.239 53.5767 118.646 53.5089C120.809 53.1479 122.981 52.8316 125.15 52.4992C125.208 52.4905 125.264 52.4767 125.352 52.4591Z" fill="black"/>
<path d="M44.5049 51.9946C45.7592 51.6306 46.9691 51.268 48.1859 50.929C50.8364 50.1902 53.5061 49.532 56.2406 49.1588C59.37 48.7319 62.4887 48.6969 65.5935 49.3711C65.9296 49.444 66.1467 49.5864 66.3321 49.8748C67.4213 51.5685 68.532 53.249 69.6342 54.9345C69.6817 55.0073 69.7185 55.087 69.7999 55.236C65.4674 54.4917 61.2586 54.9266 57.0122 55.8807C57.2819 56.3639 57.5321 56.8091 57.7792 57.2563C59.5288 60.4231 61.2802 63.589 63.0226 66.7597C63.1708 67.0292 63.2979 67.1286 63.6457 67.0365C66.8708 66.1826 70.1469 65.6247 73.4936 65.5306C73.6631 65.5259 73.9198 65.6305 73.9966 65.7619C75.0174 67.5118 76.0134 69.2754 77.0145 71.0363C77.042 71.0848 77.0543 71.1415 77.0646 71.1692C75.2921 71.4256 73.5211 71.6215 71.7763 71.9513C70.0277 72.2816 68.3054 72.7454 66.4867 73.1705C68.793 77.5717 71.0534 81.8855 73.3347 86.239C74.1982 85.9571 75.0637 85.6655 75.9351 85.3918C79.0556 84.4122 82.229 83.6683 85.4962 83.3399C86.2357 83.2656 86.2357 83.2527 86.5968 83.9117C87.4553 85.4782 88.3127 87.0454 89.1695 88.6129C89.2332 88.7294 89.2887 88.8502 89.3754 89.0234C81.7317 89.9735 74.8213 93.0042 67.8618 95.9871C60.2101 81.2485 52.5941 66.5298 44.5049 51.9946Z" fill="black"/>
<path d="M168.716 137.319C162.516 121.029 156.328 104.771 150.12 88.463C150.737 88.4168 151.323 88.3397 151.909 88.3349C154.514 88.314 157.125 88.2058 159.722 88.3363C162.268 88.4642 164.405 89.6463 166.234 91.3631C167.94 92.9644 169.242 94.855 170.274 96.9162C171.574 99.5102 172.798 102.141 173.512 104.962C173.668 105.577 173.768 106.216 173.801 106.848C173.868 108.123 173.629 109.309 172.475 110.127C172.512 110.186 172.525 110.239 172.557 110.253C175.368 111.532 177.276 113.713 178.824 116.256C180.132 118.406 180.99 120.753 181.948 123.056C182.741 124.963 183.55 126.866 183.99 128.892C184.278 130.22 184.45 131.559 184.193 132.91C183.796 134.989 182.393 136.281 180.069 136.555C178.675 136.72 177.256 136.669 175.851 136.766C173.54 136.924 171.232 137.123 168.921 137.304C168.862 137.309 168.803 137.313 168.716 137.319ZM166.25 114.144C166.371 114.484 166.431 114.665 166.5 114.842C167.157 116.53 167.818 118.216 168.472 119.905C169.662 122.977 170.845 126.053 172.043 129.122C172.095 129.254 172.27 129.436 172.383 129.432C173.624 129.398 174.866 129.36 176.102 129.263C177.031 129.191 177.557 128.605 177.546 127.69C177.54 127.222 177.487 126.73 177.33 126.292C176.632 124.353 175.938 122.41 175.145 120.507C174.581 119.155 173.933 117.825 173.193 116.558C172.332 115.083 171.003 114.197 169.206 114.148C168.253 114.122 167.3 114.144 166.25 114.144ZM158.676 94.8961C158.735 95.0668 158.778 95.2059 158.831 95.3412C159.315 96.5697 159.801 97.797 160.285 99.0251C161.324 101.661 162.359 104.299 163.407 106.931C163.469 107.086 163.634 107.323 163.745 107.32C164.726 107.295 165.715 107.283 166.684 107.15C167.562 107.03 168.024 106.391 168.029 105.509C168.031 105.244 168.015 104.974 167.969 104.714C167.67 103.018 166.91 101.475 166.23 99.9153C165.746 98.806 165.157 97.7272 164.492 96.7112C163.857 95.7391 162.934 95.013 161.702 94.9127C160.713 94.8317 159.711 94.8961 158.676 94.8961Z" fill="black"/>
<path d="M128.824 92.1649C130.78 91.7177 132.594 91.245 134.432 90.8949C138.011 90.213 141.603 89.5928 145.192 88.9642C145.877 88.8441 146.574 88.7912 147.268 88.7354C147.383 88.7261 147.583 88.8356 147.622 88.9355C148.453 91.0961 149.267 93.2631 150.076 95.4064C146.287 96.0623 142.514 96.7155 138.663 97.382C140.233 101.75 141.767 106.015 143.303 110.29C146.408 109.663 149.494 109.04 152.593 108.415C153.496 110.829 154.356 113.131 155.212 115.42C152.082 116.079 148.998 116.728 145.871 117.387C147.759 122.565 149.613 127.65 151.447 132.682C155.39 131.877 159.283 131.082 163.218 130.279C164.159 132.788 165.063 135.198 165.994 137.68C159.372 138.629 152.965 140.251 146.482 142.104C140.605 125.482 134.73 108.866 128.824 92.1649Z" fill="black"/>
<path d="M41.7781 120.059C48.8622 116.294 55.9227 112.542 63.0202 108.771C64.2004 110.978 65.3487 113.125 66.5131 115.303C62.1983 117.638 57.9125 119.958 53.5843 122.301C61.0039 135.435 68.4003 148.527 75.8268 161.672C73.3008 162.99 70.8207 164.284 68.352 165.572C59.4969 150.406 50.6571 135.266 41.7781 120.059Z" fill="black"/>
<path d="M127.706 32.2756C129.25 32.2756 130.759 32.2669 132.267 32.2926C132.385 32.2948 132.546 32.5215 132.605 32.6741C133.497 34.9878 134.368 37.3096 135.26 39.6237C138.11 47.0229 140.967 54.4199 143.822 61.8174C143.884 61.9787 143.958 62.1359 144.068 62.2829C142.471 52.4278 140.591 42.6279 138.461 32.7544C139.827 33.0348 141.097 33.2856 142.36 33.5693C142.496 33.6 142.607 33.8095 142.698 33.9552C144.385 36.6801 145.495 39.6634 146.742 42.5872C151.562 53.8902 156.4 65.186 161.233 76.4839C161.718 77.6179 162.214 78.7471 162.704 79.8793C162.755 79.9974 162.794 80.1205 162.858 80.2929C162.088 80.1856 161.373 80.0792 160.656 79.9875C159.965 79.8991 159.274 79.8046 158.58 79.7558C158.262 79.7332 158.108 79.6281 157.987 79.3355C156.097 74.7481 154.188 70.1682 152.295 65.5819C150.295 60.7344 148.306 55.8816 146.311 51.0315C146.262 50.9117 146.205 50.795 146.175 50.7302C147.928 60.2164 149.69 69.7514 151.47 79.3829C150.957 79.3829 150.586 79.3713 150.217 79.3851C148.748 79.4399 147.28 79.4926 145.813 79.5701C145.497 79.5867 145.371 79.4901 145.264 79.2044C139.455 63.6868 133.638 48.1722 127.823 32.6569C127.782 32.5484 127.754 32.4349 127.706 32.2756Z" fill="black"/>
<g opacity="0.37">
<g opacity="0.37">
<g opacity="0.37">
<mask id="mask0_7_476" style="mask-type:alpha" maskUnits="userSpaceOnUse" x="89" y="10" width="138" height="149">
<g opacity="0.37">
<g opacity="0.37">
<path opacity="0.37" d="M89.5056 48.1751L178.717 10.6079L226.123 121.232L136.912 158.8L89.5056 48.1751Z" fill="black"/>
</g>
</g>
</mask>
<g mask="url(#mask0_7_476)">
<path opacity="0.37" d="M89.5056 48.1751L178.717 10.6079L226.123 121.232L136.912 158.8L89.5056 48.1751Z" fill="black"/>
</g>
</g>
</g>
</g>
</svg>
