<svg width="25" height="25" viewBox="0 0 25 25" fill="none" xmlns="http://www.w3.org/2000/svg">
<path d="M7.15114 0.227051H17.508C21.4534 0.227051 24.6591 3.43273 24.6591 7.37819V17.735C24.6591 19.6316 23.9057 21.4505 22.5646 22.7916C21.2235 24.1327 19.4046 24.8861 17.508 24.8861H7.15114C3.20568 24.8861 0 21.6805 0 17.735V7.37819C0 5.48159 0.753421 3.66267 2.09452 2.32157C3.43562 0.980472 5.25454 0.227051 7.15114 0.227051ZM6.90455 2.69296C5.72735 2.69296 4.59836 3.1606 3.76596 3.99301C2.93355 4.82541 2.46591 5.9544 2.46591 7.1316V17.9816C2.46591 20.4352 4.45097 22.4202 6.90455 22.4202H17.7545C18.9317 22.4202 20.0607 21.9526 20.8931 21.1202C21.7255 20.2878 22.1932 19.1588 22.1932 17.9816V7.1316C22.1932 4.67802 20.2081 2.69296 17.7545 2.69296H6.90455ZM18.8026 4.54239C19.2113 4.54239 19.6033 4.70477 19.8923 4.9938C20.1814 5.28283 20.3438 5.67483 20.3438 6.08358C20.3438 6.49233 20.1814 6.88434 19.8923 7.17337C19.6033 7.4624 19.2113 7.62478 18.8026 7.62478C18.3938 7.62478 18.0018 7.4624 17.7128 7.17337C17.4237 6.88434 17.2614 6.49233 17.2614 6.08358C17.2614 5.67483 17.4237 5.28283 17.7128 4.9938C18.0018 4.70477 18.3938 4.54239 18.8026 4.54239ZM12.3295 6.39182C13.9645 6.39182 15.5326 7.04132 16.6887 8.19744C17.8448 9.35356 18.4943 10.9216 18.4943 12.5566C18.4943 14.1916 17.8448 15.7596 16.6887 16.9157C15.5326 18.0719 13.9645 18.7214 12.3295 18.7214C10.6945 18.7214 9.12651 18.0719 7.97039 16.9157C6.81427 15.7596 6.16477 14.1916 6.16477 12.5566C6.16477 10.9216 6.81427 9.35356 7.97039 8.19744C9.12651 7.04132 10.6945 6.39182 12.3295 6.39182ZM12.3295 8.85773C11.3485 8.85773 10.4077 9.24743 9.71405 9.9411C9.02038 10.6348 8.63068 11.5756 8.63068 12.5566C8.63068 13.5376 9.02038 14.4784 9.71405 15.1721C10.4077 15.8658 11.3485 16.2555 12.3295 16.2555C13.3105 16.2555 14.2514 15.8658 14.945 15.1721C15.6387 14.4784 16.0284 13.5376 16.0284 12.5566C16.0284 11.5756 15.6387 10.6348 14.945 9.9411C14.2514 9.24743 13.3105 8.85773 12.3295 8.85773Z" fill="white"/>
</svg>
