<svg width="69" height="51" viewBox="0 0 69 51" fill="none" xmlns="http://www.w3.org/2000/svg">
<path d="M8.77479 12.0321C7.48059 12.5963 6.20159 13.1539 4.88542 13.7278C7.66819 18.6157 10.4387 23.4822 13.2176 28.3634C12.1367 28.9006 11.0533 29.4392 9.95422 29.9854C6.55284 24.3385 3.24012 18.6588 0 12.9188C3.61 11.2192 7.23878 9.58709 11.0006 8.19824C14.1811 13.7448 17.2151 19.3467 20.2794 24.9502C19.1404 25.4866 18.0089 26.0193 16.857 26.5617C14.1662 21.7247 11.4763 16.8888 8.77479 12.0321Z" fill="url(#paint0_linear_9_1042)"/>
<path d="M31.1758 24.5829C32.3385 24.3016 33.4818 24.0766 34.6627 24.3096C35.3456 24.4443 35.8883 24.8153 36.3886 25.2516C36.5588 25.4 36.7443 25.5331 36.9379 25.6851C37.0556 25.5945 37.2262 25.4571 37.4034 25.3273C38.3225 24.6543 39.3843 24.2925 40.5134 24.0736C41.3286 23.9155 42.1437 23.8453 42.9576 24.0631C44.124 24.375 44.9393 25.098 45.5691 26.0371C46.0217 26.7122 46.256 27.4691 46.5272 28.2135C47.6742 31.3611 48.8261 34.5072 49.9732 37.6549C50.3758 38.7592 50.5016 39.8786 50.1042 41.0079C49.9935 41.3225 49.8194 41.6177 49.6559 41.9604C49.4798 41.7537 49.3401 41.5908 49.2017 41.4269C48.2874 40.3429 47.3723 39.2594 46.4611 38.1731C46.3929 38.0918 46.3372 37.9944 46.3025 37.8962C45.1783 34.7174 44.0602 31.5367 42.9313 28.3594C42.8326 28.0816 42.6944 27.8081 42.5266 27.561C42.155 27.0139 41.6027 26.8281 40.9312 26.9556C40.3758 27.061 39.8714 27.2647 39.4929 27.6795C39.1997 28.0009 39.0822 28.3818 39.1011 28.7987C39.1046 28.875 39.1537 28.9559 39.2004 29.0235C39.7163 29.7692 40.2421 30.509 40.7523 31.258C41.0668 31.7197 41.3615 32.1943 41.4781 32.7421C41.5965 33.2984 41.3303 33.6276 40.722 33.6773C40.2892 33.7128 39.8559 33.7419 39.423 33.7754C39.3707 33.7794 39.3192 33.7937 39.224 33.8113C40.7644 36.2707 42.2924 38.71 43.8097 41.1325C42.9418 41.3436 42.0668 41.5565 41.1665 41.7756C37.7241 36.1295 34.4181 30.3839 31.1758 24.5829ZM34.8518 26.4611C35.1892 27.0326 35.5106 27.5799 35.8346 28.1257C36.4512 29.1648 37.0683 30.2035 37.6889 31.2405C37.7191 31.291 37.7862 31.3612 37.8315 31.3583C38.2118 31.3337 38.5925 31.3039 38.97 31.2554C39.1761 31.2288 39.2852 31.0733 39.2269 30.8859C39.1575 30.6625 39.0752 30.4368 38.9558 30.2341C38.645 29.7063 38.3215 29.1843 37.9831 28.6716C37.62 28.1213 37.2529 27.5717 36.8531 27.0449C36.3608 26.3962 35.64 26.3521 34.8518 26.4611Z" fill="url(#paint1_linear_9_1042)"/>
<path d="M37.3003 7.74969C36.2738 8.00377 35.2612 8.25443 34.2302 8.50955C34.1551 8.27596 34.0823 8.04736 34.0082 7.81913C33.8329 7.27997 33.6771 6.73432 33.477 6.20328C33.1111 5.23225 32.4052 4.90939 31.3491 5.20237C30.8301 5.34632 30.3723 5.57023 30.1296 6.05836C29.9294 6.46124 29.9628 6.87574 30.0858 7.28749C30.6416 9.14707 31.2004 11.0059 31.7612 12.8642C32.2588 14.5131 32.758 16.1616 33.264 17.8082C33.331 18.0266 33.4215 18.2437 33.5376 18.4428C33.833 18.9493 34.2983 19.205 34.9197 19.1745C35.4615 19.1479 35.9645 18.9918 36.4042 18.6923C36.9966 18.289 37.1322 17.7182 36.9609 17.0939C36.7413 16.2946 36.4687 15.5081 36.2185 14.7161C36.1462 14.487 36.0724 14.2583 35.991 14.0033C37.0374 13.7285 38.0687 13.4578 39.1214 13.1814C39.1721 13.3257 39.2195 13.4552 39.2631 13.5859C39.5611 14.4809 39.8909 15.368 40.1474 16.2733C40.4409 17.3081 40.4205 18.3438 39.9247 19.3369C39.5561 20.0752 38.9689 20.6325 38.2272 21.0405C37.1983 21.6064 36.1133 22.0494 34.9276 22.2426C34.348 22.3371 33.7646 22.3638 33.1795 22.2947C33.1122 22.2867 33.0309 22.2488 32.9895 22.2C31.6082 20.5703 30.2306 18.938 28.855 17.3043C28.8048 17.2448 28.7648 17.1708 28.7442 17.0977C27.941 14.2425 27.1292 11.3893 26.3435 8.52975C25.792 6.52249 26.5393 4.73869 28.3933 3.5962C29.573 2.8692 30.8654 2.44217 32.2924 2.42243C33.9687 2.39918 35.1901 3.11009 36.0246 4.44824C36.3977 5.04679 36.6201 5.70033 36.8368 6.3567C36.9894 6.81897 37.144 7.28056 37.3003 7.74969Z" fill="url(#paint2_linear_9_1042)"/>
<path d="M30.0615 24.8711C30.493 25.6518 30.9146 26.4146 31.3463 27.1958C29.5856 27.7636 27.8934 28.4522 26.2123 29.2189C27.0428 30.7241 27.8676 32.2193 28.6914 33.7125C30.069 33.1135 31.4288 32.5222 32.801 31.9255C33.2826 32.7786 33.744 33.5957 34.2004 34.404C32.8268 35.0108 31.4694 35.6102 30.0913 36.2187C31.134 38.056 32.1623 39.868 33.198 41.693C34.9031 40.8982 36.6174 40.1581 38.3948 39.5235C38.9241 40.4083 39.4479 41.2837 39.9622 42.1432C38.5296 42.7235 37.094 43.2775 35.6839 43.8837C34.2754 44.4892 32.8925 45.1468 31.4552 45.8013C28.1722 39.9863 24.8844 34.163 21.584 28.317C24.3567 27.0142 27.1059 25.7439 30.0615 24.8711Z" fill="url(#paint3_linear_9_1042)"/>
<path d="M44.843 7.71327C43.9468 5.28213 43.0529 2.85716 42.1487 0.404407C42.8076 0.337046 43.4414 0.272219 44.0753 0.207467C44.0871 0.206275 44.0992 0.206722 44.1111 0.20635C44.2525 0.202475 44.4264 0.150168 44.5259 0.208735C44.6175 0.262757 44.63 0.435553 44.6764 0.556339C46.8885 6.3119 49.1005 12.0675 51.3124 17.8231C51.3383 17.8905 51.3617 17.9589 51.39 18.0372C50.5326 18.1498 49.6859 18.2611 48.8233 18.3744C48.6917 18.0248 48.5583 17.6737 48.427 17.3219C47.5754 15.0408 46.7238 12.7598 45.8746 10.4779C45.832 10.3637 45.7967 10.2827 45.6321 10.3096C44.7506 10.4532 43.8674 10.5874 42.9848 10.7255C42.9738 10.7271 42.9643 10.7361 42.9335 10.753C43.9112 13.4741 44.8903 16.1995 45.8712 18.9299C44.8662 19.1682 43.8743 19.4034 42.851 19.646C40.7676 13.577 38.684 7.50762 36.5928 1.4157C37.0787 1.31213 37.5413 1.2099 38.0057 1.11564C38.4658 1.02235 38.9277 0.937029 39.4089 0.844334C39.454 0.969293 39.4979 1.08881 39.5405 1.20878C40.3404 3.4602 41.1414 5.71132 41.9366 7.96416C41.986 8.1041 42.0403 8.1345 42.2004 8.10894C43.053 7.97288 43.9088 7.85366 44.7634 7.7284C44.7862 7.72512 44.8085 7.71991 44.843 7.71327Z" fill="url(#paint4_linear_9_1042)"/>
<path d="M12.9844 7.5375C13.4787 7.40032 13.9554 7.26366 14.4349 7.13587C15.4793 6.85741 16.5313 6.60935 17.6089 6.46867C18.842 6.30779 20.071 6.2946 21.2944 6.5487C21.4269 6.57619 21.5124 6.62984 21.5855 6.73856C22.0147 7.37692 22.4524 8.01029 22.8867 8.6456C22.9054 8.67302 22.9199 8.70306 22.952 8.75924C21.2447 8.47869 19.5862 8.64262 17.9129 9.00223C18.0192 9.18434 18.1178 9.35215 18.2152 9.5207C18.9046 10.7143 19.5948 11.9075 20.2813 13.1026C20.3398 13.2042 20.3898 13.2416 20.5269 13.2069C21.7978 12.8851 23.0887 12.6748 24.4075 12.6393C24.4743 12.6376 24.5754 12.677 24.6057 12.7265C25.008 13.3861 25.4004 14.0508 25.7949 14.7145C25.8057 14.7328 25.8106 14.7541 25.8147 14.7646C25.1162 14.8612 24.4183 14.9351 23.7308 15.0594C23.0417 15.1839 22.363 15.3587 21.6464 15.5189C22.5552 17.1777 23.4459 18.8036 24.3449 20.4445C24.6851 20.3382 25.0262 20.2283 25.3696 20.1252C26.5992 19.756 27.8497 19.4756 29.1372 19.3518C29.4285 19.3238 29.4285 19.319 29.5709 19.5673C29.9091 20.1578 30.247 20.7484 30.5847 21.3393C30.6097 21.3832 30.6316 21.4287 30.6658 21.494C27.6538 21.8521 24.9307 22.9944 22.1883 24.1187C19.1731 18.5635 16.172 13.0159 12.9844 7.5375Z" fill="url(#paint5_linear_9_1042)"/>
<path d="M61.9294 39.6968C59.4861 33.5571 57.0477 27.4295 54.6016 21.2831C54.8447 21.2656 55.0754 21.2366 55.3063 21.2348C56.3327 21.2269 57.3616 21.1861 58.3852 21.2353C59.3884 21.2835 60.2305 21.729 60.9512 22.3761C61.6235 22.9796 62.1364 23.6922 62.5433 24.469C63.0554 25.4467 63.5376 26.4384 63.8193 27.5013C63.8807 27.7331 63.9198 27.9739 63.9329 28.2124C63.9593 28.6929 63.8654 29.1398 63.4106 29.4483C63.4251 29.4704 63.4302 29.4902 63.4427 29.4956C64.5506 29.9776 65.3025 30.7996 65.9122 31.7581C66.4277 32.5683 66.7659 33.453 67.1433 34.3211C67.456 35.0399 67.7746 35.7571 67.9479 36.5206C68.0615 37.0211 68.1295 37.5256 68.0279 38.0349C67.8716 38.8184 67.3187 39.3054 66.4028 39.4089C65.8535 39.471 65.2943 39.4518 64.741 39.4881C63.8302 39.5477 62.9205 39.6226 62.0102 39.691C61.9869 39.6929 61.9634 39.6944 61.9294 39.6968ZM60.9573 30.962C61.0052 31.0902 61.0288 31.1583 61.056 31.2252C61.3149 31.8613 61.5754 32.4968 61.8332 33.1333C62.302 34.2913 62.7683 35.4504 63.2403 36.6072C63.2606 36.6568 63.3297 36.7254 63.3743 36.7242C63.8632 36.7111 64.3526 36.697 64.8399 36.6605C65.2057 36.6332 65.4132 36.4124 65.4088 36.0675C65.4065 35.891 65.3856 35.7056 65.3235 35.5404C65.0485 34.8096 64.775 34.0773 64.4625 33.3603C64.2404 32.8507 63.9851 32.3495 63.6935 31.8719C63.3541 31.3159 62.8303 30.982 62.1222 30.9636C61.747 30.9539 61.3715 30.962 60.9573 30.962ZM57.9729 23.7077C57.9962 23.772 58.0131 23.8244 58.034 23.8754C58.2247 24.3384 58.4163 24.801 58.607 25.2639C59.0163 26.2574 59.4244 27.2514 59.8374 28.2436C59.8617 28.3021 59.9265 28.3913 59.9704 28.3901C60.3571 28.3808 60.7466 28.3763 61.1286 28.3261C61.4745 28.2807 61.6565 28.0399 61.6587 27.7075C61.6594 27.6075 61.6529 27.5061 61.6348 27.4079C61.5172 26.7688 61.2176 26.1874 60.9496 25.5994C60.7591 25.1813 60.5267 24.7747 60.2649 24.3918C60.0145 24.0254 59.6509 23.7517 59.1655 23.7139C58.7756 23.6834 58.3806 23.7077 57.9729 23.7077Z" fill="url(#paint6_linear_9_1042)"/>
<path d="M46.2119 22.6785C46.9825 22.51 47.6973 22.3318 48.4218 22.1998C49.8322 21.9429 51.2474 21.7091 52.6618 21.4722C52.9315 21.4269 53.2064 21.407 53.4798 21.386C53.5251 21.3824 53.604 21.4237 53.6191 21.4614C53.9468 22.2757 54.2675 23.0924 54.5863 23.9002C53.093 24.1475 51.6063 24.3936 50.0891 24.6448C50.7077 26.2911 51.3119 27.8988 51.9174 29.5097C53.1409 29.2735 54.3569 29.0388 55.5783 28.8031C55.9339 29.7132 56.2729 30.5807 56.6099 31.4432C55.3766 31.6916 54.1613 31.9364 52.9292 32.1846C53.6733 34.1364 54.4037 36.0528 55.1266 37.9492C56.6804 37.6458 58.2142 37.3464 59.7649 37.0437C60.1357 37.9893 60.492 38.8978 60.8588 39.8329C58.2492 40.1907 55.7248 40.8022 53.1702 41.5005C50.8542 35.2356 48.539 28.9731 46.2119 22.6785Z" fill="url(#paint7_linear_9_1042)"/>
<path d="M11.9102 33.1914C14.7017 31.7726 17.4839 30.3585 20.2807 28.937C20.7457 29.7689 21.1982 30.5781 21.6571 31.3989C19.9568 32.2792 18.268 33.1536 16.5624 34.0365C19.4862 38.9866 22.4008 43.921 25.3272 48.8755C24.3318 49.3722 23.3545 49.8598 22.3817 50.3452C18.8923 44.6292 15.409 38.9229 11.9102 33.1914Z" fill="url(#paint8_linear_9_1042)"/>
<path d="M45.7715 0.106003C46.3801 0.106003 46.9747 0.102724 47.5691 0.112411C47.6153 0.113231 47.679 0.198697 47.7021 0.25622C48.0538 1.12824 48.3969 2.00331 48.7482 2.87547C49.8714 5.66424 50.9971 8.45212 52.1222 11.2402C52.1467 11.301 52.1756 11.3603 52.2191 11.4157C51.5897 7.70134 50.849 4.00776 50.0099 0.286473C50.5479 0.392131 51.0485 0.486687 51.5461 0.593612C51.5999 0.605161 51.6436 0.684144 51.6792 0.739059C52.3441 1.76606 52.7813 2.89045 53.2727 3.99241C55.1723 8.2525 57.0786 12.5098 58.9829 16.768C59.1741 17.1954 59.3698 17.621 59.5628 18.0477C59.5829 18.0922 59.5983 18.1386 59.6234 18.2036C59.32 18.1632 59.0382 18.1231 58.7557 18.0885C58.4835 18.0552 58.2111 18.0196 57.9377 18.0012C57.8125 17.9927 57.7517 17.953 57.7042 17.8428C56.9594 16.1138 56.2071 14.3876 55.4611 12.6591C54.6727 10.832 53.8891 9.00307 53.1031 7.17506C53.0837 7.1299 53.0611 7.08594 53.0494 7.0615C53.7402 10.6368 54.4345 14.2305 55.1358 17.8606C54.9337 17.8606 54.7877 17.8562 54.642 17.8615C54.0635 17.8821 53.4848 17.902 52.9067 17.9312C52.7822 17.9375 52.7325 17.901 52.6904 17.7934C50.4016 11.9448 48.1092 6.09738 45.8178 0.249737C45.8016 0.20883 45.7906 0.16606 45.7715 0.106003Z" fill="url(#paint9_linear_9_1042)"/>
<defs>
<linearGradient id="paint0_linear_9_1042" x1="8.51243" y1="19.77" x2="11.2558" y2="18.583" gradientUnits="userSpaceOnUse">
<stop stop-color="white"/>
<stop offset="0.486" stop-color="#F5F5F5"/>
<stop offset="1" stop-color="white"/>
</linearGradient>
<linearGradient id="paint1_linear_9_1042" x1="39.2227" y1="33.5045" x2="41.6974" y2="32.2818" gradientUnits="userSpaceOnUse">
<stop stop-color="white"/>
<stop offset="0.486" stop-color="#F5F5F5"/>
<stop offset="1" stop-color="white"/>
</linearGradient>
<linearGradient id="paint2_linear_9_1042" x1="32.1153" y1="12.9975" x2="34.1669" y2="12.3187" gradientUnits="userSpaceOnUse">
<stop stop-color="white"/>
<stop offset="0.486" stop-color="#F5F5F5"/>
<stop offset="1" stop-color="white"/>
</linearGradient>
<linearGradient id="paint3_linear_9_1042" x1="29.2984" y1="35.9877" x2="31.8285" y2="34.955" gradientUnits="userSpaceOnUse">
<stop stop-color="white"/>
<stop offset="0.486" stop-color="#F5F5F5"/>
<stop offset="1" stop-color="white"/>
</linearGradient>
<linearGradient id="paint4_linear_9_1042" x1="42.804" y1="10.5195" x2="44.9167" y2="9.77294" gradientUnits="userSpaceOnUse">
<stop stop-color="white"/>
<stop offset="0.486" stop-color="#F5F5F5"/>
<stop offset="1" stop-color="white"/>
</linearGradient>
<linearGradient id="paint5_linear_9_1042" x1="20.4063" y1="15.7884" x2="22.7454" y2="14.7063" gradientUnits="userSpaceOnUse">
<stop stop-color="white"/>
<stop offset="0.486" stop-color="#F5F5F5"/>
<stop offset="1" stop-color="white"/>
</linearGradient>
<linearGradient id="paint6_linear_9_1042" x1="60.2582" y1="31.0295" x2="62.1996" y2="30.3717" gradientUnits="userSpaceOnUse">
<stop stop-color="white"/>
<stop offset="0.486" stop-color="#F5F5F5"/>
<stop offset="1" stop-color="white"/>
</linearGradient>
<linearGradient id="paint7_linear_9_1042" x1="52.36" y1="32.0693" x2="54.4706" y2="31.3549" gradientUnits="userSpaceOnUse">
<stop stop-color="white"/>
<stop offset="0.486" stop-color="#F5F5F5"/>
<stop offset="1" stop-color="white"/>
</linearGradient>
<linearGradient id="paint8_linear_9_1042" x1="17.5421" y1="40.3075" x2="19.5283" y2="39.7289" gradientUnits="userSpaceOnUse">
<stop stop-color="white"/>
<stop offset="0.486" stop-color="#F5F5F5"/>
<stop offset="1" stop-color="white"/>
</linearGradient>
<linearGradient id="paint9_linear_9_1042" x1="51.5859" y1="9.71792" x2="53.5606" y2="9.01536" gradientUnits="userSpaceOnUse">
<stop stop-color="white"/>
<stop offset="0.486" stop-color="#F5F5F5"/>
<stop offset="1" stop-color="white"/>
</linearGradient>
</defs>
</svg>
