<svg width="27" height="27" viewBox="0 0 27 27" fill="none" xmlns="http://www.w3.org/2000/svg">
<g clip-path="url(#clip0_9_46)">
<path d="M20.25 18.09C19.395 18.09 18.63 18.4275 18.045 18.9563L10.0237 14.2875C10.08 14.0287 10.125 13.77 10.125 13.5C10.125 13.23 10.08 12.9713 10.0237 12.7125L17.955 8.08875C18.5625 8.65125 19.3612 9 20.25 9C22.1175 9 23.625 7.4925 23.625 5.625C23.625 3.7575 22.1175 2.25 20.25 2.25C18.3825 2.25 16.875 3.7575 16.875 5.625C16.875 5.895 16.92 6.15375 16.9762 6.4125L9.045 11.0363C8.4375 10.4738 7.63875 10.125 6.75 10.125C4.8825 10.125 3.375 11.6325 3.375 13.5C3.375 15.3675 4.8825 16.875 6.75 16.875C7.63875 16.875 8.4375 16.5262 9.045 15.9637L17.055 20.6438C16.9987 20.88 16.965 21.1275 16.965 21.375C16.965 23.1863 18.4388 24.66 20.25 24.66C22.0613 24.66 23.535 23.1863 23.535 21.375C23.535 19.5637 22.0613 18.09 20.25 18.09Z" fill="black"/>
</g>
<defs>
<clipPath id="clip0_9_46">
<rect width="27" height="27" fill="white"/>
</clipPath>
</defs>
</svg>
