<svg width="60" height="44" viewBox="0 0 60 44" fill="none" xmlns="http://www.w3.org/2000/svg">
<path d="M56 9.99999H42L35 0.999991H18L11 9.99999H3.99999C2.34399 9.99999 0.999993 11.343 0.999993 13V40C0.999993 41.657 2.34399 43 3.99999 43H56C57.656 43 59 41.657 59 40V13C59 11.343 57.656 9.99999 56 9.99999Z" stroke="white" stroke-width="2" stroke-miterlimit="10"/>
<path d="M48 6.99999V4.99999H55V6.99999" stroke="white" stroke-width="2" stroke-miterlimit="10"/>
<path d="M27 38C34.732 38 41 31.732 41 24C41 16.268 34.732 9.99999 27 9.99999C19.268 9.99999 13 16.268 13 24C13 31.732 19.268 38 27 38Z" stroke="white" stroke-width="2" stroke-miterlimit="10"/>
<path d="M27 34C32.5228 34 37 29.5228 37 24C37 18.4771 32.5228 14 27 14C21.4771 14 17 18.4771 17 24C17 29.5228 21.4771 34 27 34Z" stroke="white" stroke-width="2" stroke-miterlimit="10"/>
<path d="M21.3418 22C22.1658 19.669 24.3878 18 26.9998 18" stroke="white" stroke-width="2" stroke-miterlimit="10"/>
<path d="M21.805 27.002C21.293 26.119 21 25.094 21 24" stroke="white" stroke-width="2" stroke-miterlimit="10"/>
<path d="M4.99999 15H11" stroke="white" stroke-width="2" stroke-miterlimit="10"/>
<path d="M56 43H47V9.99999H56C57.656 9.99999 59 11.343 59 13V40C59 41.657 57.656 43 56 43Z" stroke="white" stroke-width="2" stroke-miterlimit="10"/>
<path d="M40 36H42" stroke="white" stroke-width="2" stroke-miterlimit="10"/>
</svg>
