<svg width="25" height="29" viewBox="0 0 25 29" fill="none" xmlns="http://www.w3.org/2000/svg">
<path d="M24.9866 7.2612C23.3601 7.2612 21.8595 6.71208 20.6544 5.7857C19.2723 4.72375 18.2793 3.166 17.9286 1.37055C17.8418 0.926938 17.795 0.469142 17.7906 0H13.1445V12.9386L13.1389 20.0256C13.1389 21.9203 11.9282 23.5269 10.25 24.0919C9.76299 24.2558 9.23698 24.3335 8.68926 24.3029C7.99015 24.2638 7.335 24.0488 6.76558 23.7016C5.55382 22.963 4.73224 21.6231 4.70998 20.0903C4.67491 17.6946 6.57522 15.7415 8.92416 15.7415C9.38782 15.7415 9.83312 15.8186 10.25 15.9588V12.4223V11.1511C9.8103 11.0847 9.36277 11.0501 8.91024 11.0501C6.33921 11.0501 3.9346 12.1393 2.21576 14.1015C0.916605 15.5844 0.137335 17.4762 0.0171046 19.46C-0.140419 22.0661 0.795261 24.5434 2.60985 26.3712C2.87647 26.6395 3.15645 26.8886 3.44923 27.1183C5.00499 28.3385 6.90696 29 8.91024 29C9.36277 29 9.8103 28.966 10.25 28.8996C12.1214 28.6171 13.848 27.744 15.2106 26.3712C16.885 24.6847 17.8101 22.4456 17.8201 20.0625L17.7961 9.47927C18.5949 10.1073 19.4682 10.6269 20.4056 11.0302C21.8634 11.6571 23.4091 11.9747 24.9999 11.9742V8.53589V7.26007C25.001 7.2612 24.9877 7.2612 24.9866 7.2612Z" fill="white"/>
</svg>
