<svg width="28" height="17" viewBox="0 0 28 17" fill="none" xmlns="http://www.w3.org/2000/svg">
<path d="M24.8885 11.6332C27.1313 13.7168 27.5943 14.7152 27.6667 14.8454C28.5927 16.3792 26.6538 16.495 26.6538 16.495L22.9206 16.5528C22.9206 16.5528 22.1103 16.712 21.0685 15.9885C19.665 15.0335 18.3193 12.5303 17.3209 12.8631C16.2935 13.1959 16.3225 15.4387 16.3225 15.4387C16.3225 15.4387 16.3225 15.757 16.091 16.003C15.8305 16.2779 15.3241 16.1766 15.3241 16.1766H13.6601C13.6601 16.1766 9.9703 16.5528 6.74357 13.1814C3.1985 9.50613 0.0730566 2.2713 0.0730566 2.2713C0.0730566 2.2713 -0.100579 1.83721 0.0875262 1.59123C0.304571 1.35971 0.912296 1.35971 0.912296 1.35971H4.90592C4.90592 1.35971 5.2966 1.35971 5.54259 1.59123C5.75963 1.75039 5.88986 2.0832 5.88986 2.0832C5.88986 2.0832 6.52652 3.68933 7.3947 5.16523C9.05871 8.04469 9.8256 8.66689 10.361 8.36303C11.2292 7.91447 10.9832 4.29705 10.9832 4.29705C10.9832 4.29705 10.9976 2.98031 10.5636 2.40153C10.2308 1.95297 9.59409 1.80827 9.31917 1.77933C9.08765 1.75039 9.46386 1.22949 9.94136 0.983502C10.6648 0.63623 11.9237 0.63623 13.4285 0.63623C14.6006 0.63623 14.9334 0.723049 15.3819 0.824336C16.771 1.15714 16.2935 2.44494 16.2935 5.5125C16.2935 6.51091 16.1488 7.87106 16.8289 8.34856C17.1328 8.55113 17.8852 8.37749 19.7663 5.20864C20.6344 3.7038 21.3 1.92403 21.3 1.92403C21.3 1.92403 21.4447 1.62017 21.6618 1.47547C21.8933 1.35971 22.2116 1.35971 22.2116 1.35971H26.4078C26.4078 1.35971 27.6812 1.21502 27.8837 1.77933C28.1008 2.37259 27.4062 3.77614 25.6843 6.04788C22.8772 9.80999 22.5589 9.46272 24.8885 11.6332Z" fill="white"/>
</svg>
