<svg width="24" height="20" viewBox="0 0 24 20" fill="none" xmlns="http://www.w3.org/2000/svg">
<path d="M9.97631 14.4373V4.76409L16.4261 9.60065L9.97631 14.4373ZM21.6003 0.479954C20.881 0.240655 16.4412 -3.00459e-05 12 -3.00459e-05C7.55878 -3.00459e-05 3.12168 0.228392 2.39972 0.456752C0.527793 1.07893 -1.73591e-05 5.27822 -1.73591e-05 9.60065C-1.73591e-05 13.9067 0.527793 18.1198 2.39972 18.7324C3.12032 18.973 7.55878 19.2 12 19.2C16.4412 19.2 20.8797 18.973 21.6003 18.7324C23.4722 18.1211 24 13.908 24 9.60065C24 5.27822 23.4722 1.09256 21.6003 0.479954Z" fill="white"/>
</svg>
