<svg width="71" height="63" viewBox="0 0 71 63" fill="none" xmlns="http://www.w3.org/2000/svg">
<path d="M10.6092 18.8668C9.57889 19.316 8.56067 19.76 7.51285 20.2168C9.72824 24.1081 11.9339 27.9824 14.1462 31.8683C13.2857 32.296 12.4231 32.7247 11.5482 33.1595C8.8403 28.664 6.20302 24.1424 3.62354 19.5727C6.49748 18.2197 9.38639 16.9204 12.3812 15.8147C14.9132 20.2303 17.3286 24.6901 19.7681 29.151C18.8614 29.578 17.9606 30.0022 17.0435 30.434C14.9014 26.5832 12.7599 22.7333 10.6092 18.8668Z" fill="black"/>
<path d="M28.4434 28.8589C29.369 28.6349 30.2792 28.4558 31.2193 28.6412C31.763 28.7485 32.195 29.0439 32.5934 29.3912C32.7288 29.5093 32.8765 29.6153 33.0307 29.7363C33.1243 29.6642 33.2602 29.5547 33.4012 29.4515C34.1329 28.9157 34.9783 28.6276 35.8771 28.4534C36.5261 28.3275 37.175 28.2716 37.823 28.445C38.7516 28.6934 39.4006 29.2689 39.902 30.0166C40.2623 30.554 40.4488 31.1566 40.6648 31.7492C41.5779 34.255 42.4949 36.7596 43.4082 39.2654C43.7286 40.1446 43.8288 41.0357 43.5124 41.9348C43.4243 42.1853 43.2857 42.4203 43.1555 42.6931C43.0154 42.5285 42.9041 42.3988 42.794 42.2683C42.066 41.4054 41.3375 40.5428 40.6121 39.678C40.5578 39.6133 40.5135 39.5358 40.4859 39.4576C39.5909 36.9269 38.7007 34.3947 37.802 31.8653C37.7234 31.6441 37.6134 31.4264 37.4799 31.2297C37.184 30.7942 36.7443 30.6462 36.2097 30.7477C35.7675 30.8317 35.366 30.9938 35.0647 31.324C34.8313 31.5799 34.7377 31.8832 34.7528 32.215C34.7556 32.2758 34.7946 32.3402 34.8318 32.394C35.2426 32.9877 35.6612 33.5766 36.0673 34.1729C36.3177 34.5405 36.5523 34.9183 36.6451 35.3543C36.7394 35.7972 36.5274 36.0593 36.0432 36.0989C35.6987 36.1272 35.3537 36.1503 35.0091 36.177C34.9674 36.1802 34.9264 36.1916 34.8506 36.2056C36.077 38.1635 37.2934 40.1054 38.5013 42.034C37.8104 42.2021 37.1138 42.3716 36.397 42.546C33.6565 38.0511 31.0246 33.477 28.4434 28.8589ZM31.3699 30.3541C31.6384 30.8091 31.8944 31.2447 32.1523 31.6793C32.6432 32.5065 33.1344 33.3334 33.6285 34.159C33.6525 34.1992 33.706 34.255 33.7421 34.2527C34.0448 34.2331 34.3478 34.2094 34.6484 34.1708C34.8125 34.1497 34.8993 34.0258 34.8529 33.8766C34.7977 33.6988 34.7321 33.5192 34.6371 33.3578C34.3897 32.9376 34.1321 32.522 33.8627 32.1138C33.5736 31.6757 33.2814 31.2382 32.9631 30.8189C32.5712 30.3024 31.9973 30.2673 31.3699 30.3541Z" fill="black"/>
<path d="M33.3191 15.4574C32.502 15.6597 31.6958 15.8592 30.8751 16.0624C30.8152 15.8764 30.7573 15.6944 30.6983 15.5127C30.5587 15.0835 30.4347 14.6491 30.2754 14.2263C29.9841 13.4532 29.4222 13.1962 28.5814 13.4294C28.1682 13.544 27.8037 13.7223 27.6105 14.1109C27.4512 14.4316 27.4777 14.7616 27.5757 15.0894C28.0182 16.5699 28.463 18.0498 28.9095 19.5292C29.3056 20.8419 29.703 22.1543 30.1058 23.4652C30.1592 23.6391 30.2312 23.8119 30.3237 23.9704C30.5588 24.3736 30.9292 24.5772 31.4239 24.553C31.8553 24.5318 32.2557 24.4075 32.6058 24.1691C33.0774 23.848 33.1854 23.3936 33.0489 22.8966C32.8742 22.2602 32.6571 21.6341 32.4579 21.0035C32.4004 20.8211 32.3417 20.6391 32.2768 20.436C33.1099 20.2173 33.9309 20.0018 34.7689 19.7817C34.8093 19.8966 34.8471 19.9997 34.8817 20.1038C35.119 20.8163 35.3816 21.5225 35.5858 22.2433C35.8194 23.0671 35.8032 23.8916 35.4085 24.6822C35.115 25.27 34.6475 25.7137 34.0571 26.0385C33.238 26.4891 32.3742 26.8418 31.4303 26.9955C30.9688 27.0708 30.5044 27.092 30.0386 27.037C29.985 27.0306 29.9203 27.0005 29.8873 26.9616C28.7877 25.6642 27.6909 24.3647 26.5958 23.0641C26.5559 23.0167 26.524 22.9578 26.5076 22.8995C25.8682 20.6264 25.2219 18.355 24.5964 16.0784C24.1574 14.4804 24.7522 13.0603 26.2282 12.1507C27.1674 11.5719 28.1963 11.232 29.3324 11.2163C30.6668 11.1978 31.6393 11.7637 32.3036 12.8291C32.6006 13.3056 32.7777 13.8259 32.9502 14.3484C33.0716 14.7164 33.1948 15.0839 33.3191 15.4574Z" fill="black"/>
<path d="M27.5554 29.0881C27.8989 29.7097 28.2346 30.317 28.5783 30.9389C27.1765 31.3909 25.8294 31.9391 24.491 32.5495C25.1522 33.7478 25.8089 34.9382 26.4647 36.1269C27.5614 35.65 28.644 35.1792 29.7363 34.7043C30.1198 35.3834 30.4871 36.0339 30.8504 36.6774C29.7569 37.1605 28.6763 37.6377 27.5792 38.1221C28.4093 39.5848 29.2279 41.0274 30.0524 42.4802C31.4099 41.8475 32.7746 41.2583 34.1896 40.7531C34.611 41.4575 35.028 42.1545 35.4375 42.8387C34.2969 43.3006 33.154 43.7417 32.0314 44.2243C30.9101 44.7063 29.8092 45.2299 28.6649 45.7509C26.0514 41.1216 23.4339 36.4855 20.8064 31.8315C23.0138 30.7943 25.2025 29.783 27.5554 29.0881Z" fill="black"/>
<path d="M39.3234 15.4285C38.61 13.493 37.8983 11.5625 37.1785 9.60986C37.703 9.55624 38.2076 9.50463 38.7123 9.45308C38.7217 9.45213 38.7313 9.45249 38.7408 9.45219C38.8534 9.4491 38.9918 9.40746 39.071 9.45409C39.144 9.49709 39.1538 9.63466 39.1908 9.73082C40.9519 14.3128 42.7129 18.8948 44.4738 23.4769C44.4944 23.5306 44.513 23.585 44.5356 23.6473C43.853 23.737 43.1789 23.8256 42.4922 23.9158C42.3874 23.6375 42.2813 23.3579 42.1767 23.0779C41.4988 21.2619 40.8207 19.446 40.1447 17.6294C40.1108 17.5385 40.0827 17.474 39.9516 17.4954C39.2498 17.6097 38.5467 17.7165 37.8441 17.8265C37.8354 17.8278 37.8278 17.8349 37.8033 17.8484C38.5816 20.0147 39.3611 22.1844 40.142 24.358C39.3419 24.5477 38.5523 24.7349 37.7376 24.9281C36.079 20.0965 34.4202 15.2647 32.7554 10.415C33.1422 10.3325 33.5105 10.2511 33.8802 10.1761C34.2465 10.1018 34.6142 10.0339 34.9973 9.96009C35.0332 10.0596 35.0682 10.1547 35.1021 10.2502C35.7389 12.0426 36.3766 13.8347 37.0096 15.6282C37.049 15.7396 37.0922 15.7638 37.2196 15.7434C37.8984 15.6351 38.5797 15.5402 39.2601 15.4405C39.2782 15.4379 39.296 15.4337 39.3234 15.4285Z" fill="black"/>
<path d="M13.9607 15.2892C14.3542 15.18 14.7338 15.0712 15.1155 14.9694C15.947 14.7478 16.7845 14.5503 17.6423 14.4383C18.624 14.3102 19.6024 14.2997 20.5764 14.502C20.6818 14.5239 20.7499 14.5666 20.8081 14.6532C21.1498 15.1613 21.4982 15.6656 21.844 16.1713C21.8589 16.1932 21.8704 16.2171 21.896 16.2618C20.5368 16.0385 19.2165 16.169 17.8844 16.4552C17.969 16.6002 18.0475 16.7338 18.125 16.868C18.6738 17.8182 19.2233 18.7681 19.7699 19.7195C19.8164 19.8004 19.8562 19.8302 19.9653 19.8026C20.9771 19.5464 22.0048 19.3789 23.0547 19.3507C23.1079 19.3493 23.1884 19.3807 23.2125 19.4201C23.5328 19.9452 23.8452 20.4744 24.1593 21.0027C24.1679 21.0173 24.1717 21.0343 24.175 21.0426C23.6189 21.1195 23.0634 21.1783 22.516 21.2773C21.9674 21.3764 21.4271 21.5155 20.8566 21.6431C21.5801 22.9637 22.2892 24.258 23.0049 25.5643C23.2758 25.4797 23.5473 25.3922 23.8206 25.3101C24.7996 25.0162 25.7951 24.793 26.8201 24.6944C27.052 24.6721 27.052 24.6683 27.1653 24.866C27.4346 25.3361 27.7036 25.8063 27.9724 26.2766C27.9924 26.3116 28.0098 26.3478 28.037 26.3998C25.6391 26.6849 23.4712 27.5942 21.288 28.4893C18.8876 24.0669 16.4984 19.6505 13.9607 15.2892Z" fill="black"/>
<path d="M52.9265 40.8911C50.9814 36.0032 49.0401 31.1249 47.0928 26.2316C47.2864 26.2177 47.47 26.1946 47.6538 26.1932C48.471 26.1869 49.29 26.1544 50.105 26.1936C50.9036 26.2319 51.574 26.5866 52.1478 27.1018C52.683 27.5823 53.0913 28.1495 53.4153 28.768C53.823 29.5463 54.2068 30.3358 54.4311 31.182C54.4799 31.3666 54.5111 31.5583 54.5215 31.7481C54.5425 32.1307 54.4678 32.4865 54.1057 32.7321C54.1173 32.7497 54.1214 32.7655 54.1312 32.7697C55.0133 33.1535 55.6119 33.8079 56.0973 34.571C56.5076 35.216 56.7769 35.9203 57.0774 36.6114C57.3263 37.1836 57.5799 37.7546 57.7179 38.3625C57.8083 38.7609 57.8625 39.1625 57.7816 39.568C57.6572 40.1917 57.217 40.5795 56.4878 40.6619C56.0505 40.7113 55.6054 40.696 55.1649 40.7249C54.4398 40.7724 53.7156 40.832 52.9908 40.8865C52.9723 40.888 52.9536 40.8892 52.9265 40.8911ZM52.1526 33.9372C52.1908 34.0392 52.2096 34.0935 52.2312 34.1467C52.4373 34.6531 52.6447 35.159 52.8499 35.6657C53.2231 36.5877 53.5943 37.5104 53.9702 38.4314C53.9863 38.4709 54.0413 38.5255 54.0768 38.5246C54.466 38.5141 54.8556 38.5029 55.2436 38.4738C55.5348 38.4521 55.7 38.2763 55.6965 38.0018C55.6947 37.8612 55.6781 37.7136 55.6286 37.5821C55.4097 37.0003 55.1919 36.4173 54.9431 35.8465C54.7664 35.4408 54.5631 35.0418 54.331 34.6616C54.0607 34.2189 53.6438 33.9531 53.08 33.9385C52.7813 33.9307 52.4823 33.9372 52.1526 33.9372ZM49.7767 28.1619C49.7953 28.2131 49.8087 28.2548 49.8254 28.2954C49.9772 28.664 50.1297 29.0323 50.2815 29.4008C50.6074 30.1917 50.9323 30.9831 51.261 31.773C51.2804 31.8196 51.332 31.8906 51.3669 31.8897C51.6748 31.8822 51.9849 31.8786 52.289 31.8387C52.5643 31.8025 52.7093 31.6109 52.711 31.3462C52.7116 31.2666 52.7064 31.1859 52.692 31.1076C52.5984 30.5989 52.3599 30.136 52.1465 29.6679C51.9948 29.335 51.8098 29.0113 51.6014 28.7065C51.402 28.4148 51.1126 28.1969 50.7262 28.1669C50.4157 28.1425 50.1013 28.1619 49.7767 28.1619Z" fill="black"/>
<path d="M40.4131 27.3427C41.0266 27.2085 41.5956 27.0667 42.1724 26.9616C43.2952 26.757 44.4219 26.5709 45.5479 26.3823C45.7626 26.3463 45.9815 26.3304 46.1991 26.3136C46.2352 26.3109 46.298 26.3437 46.31 26.3737C46.5709 27.022 46.8262 27.6722 47.08 28.3153C45.8912 28.5121 44.7076 28.7081 43.4998 28.9081C43.9922 30.2187 44.4732 31.4986 44.9553 32.7811C45.9293 32.593 46.8974 32.4062 47.8697 32.2185C48.1528 32.943 48.4227 33.6337 48.691 34.3203C47.7092 34.5181 46.7417 34.713 45.7608 34.9105C46.3532 36.4644 46.9346 37.9901 47.5102 39.4998C48.7471 39.2583 49.9682 39.02 51.2027 38.7789C51.498 39.5318 51.7816 40.255 52.0736 40.9995C49.9961 41.2843 47.9864 41.7712 45.9526 42.327C44.1089 37.3395 42.2657 32.3539 40.4131 27.3427Z" fill="black"/>
<path d="M13.1055 35.712C15.3278 34.5824 17.5428 33.4566 19.7693 32.325C20.1396 32.9872 20.4998 33.6315 20.8651 34.2849C19.5115 34.9857 18.167 35.6818 16.8092 36.3847C19.1368 40.3255 21.4571 44.2539 23.7869 48.1982C22.9944 48.5937 22.2164 48.9819 21.442 49.3683C18.664 44.8177 15.8909 40.2749 13.1055 35.712Z" fill="black"/>
<path d="M40.0625 9.3725C40.547 9.3725 41.0204 9.36989 41.4936 9.3776C41.5304 9.37825 41.5811 9.44629 41.5995 9.49209C41.8794 10.1863 42.1526 10.883 42.4323 11.5773C43.3265 13.7975 44.2226 16.0169 45.1184 18.2366C45.1379 18.285 45.1609 18.3321 45.1955 18.3763C44.6944 15.4192 44.1047 12.4787 43.4367 9.51617C43.865 9.60029 44.2636 9.67556 44.6597 9.76069C44.7025 9.76988 44.7374 9.83276 44.7657 9.87648C45.295 10.6941 45.6431 11.5892 46.0343 12.4665C47.5466 15.858 49.0642 19.2473 50.5802 22.6373C50.7324 22.9776 50.8883 23.3164 51.0419 23.6561C51.0579 23.6915 51.0701 23.7285 51.0901 23.7802C50.8486 23.748 50.6242 23.7161 50.3993 23.6886C50.1826 23.6621 49.9658 23.6337 49.7481 23.6191C49.6485 23.6123 49.6 23.5807 49.5622 23.4929C48.9693 22.1165 48.3704 20.7423 47.7765 19.3662C47.1489 17.9116 46.525 16.4556 45.8992 15.0003C45.8838 14.9643 45.8658 14.9293 45.8565 14.9098C46.4065 17.7562 46.9592 20.6172 47.5175 23.5072C47.3566 23.5072 47.2404 23.5037 47.1244 23.5078C46.6638 23.5243 46.2031 23.5401 45.7429 23.5633C45.6438 23.5683 45.6042 23.5393 45.5707 23.4536C43.7485 18.7975 41.9236 14.1423 40.0994 9.48692C40.0865 9.45436 40.0777 9.42031 40.0625 9.3725Z" fill="black"/>
<g opacity="0.37">
<g opacity="0.37">
<g opacity="0.37">
<mask id="mask0_9_11" style="mask-type:alpha" maskUnits="userSpaceOnUse" x="28" y="2" width="43" height="46">
<g opacity="0.37">
<g opacity="0.37">
<path opacity="0.37" d="M28.0784 14.1432L56.0647 2.87109L70.9365 36.0642L42.9502 47.3365L28.0784 14.1432Z" fill="black"/>
</g>
</g>
</mask>
<g mask="url(#mask0_9_11)">
<path opacity="0.37" d="M28.0784 14.1432L56.0647 2.87109L70.9365 36.0642L42.9502 47.3365L28.0784 14.1432Z" fill="black"/>
</g>
</g>
</g>
</g>
</svg>
