<svg width="42" height="51" viewBox="0 0 42 51" fill="none" xmlns="http://www.w3.org/2000/svg">
<path fill-rule="evenodd" clip-rule="evenodd" d="M36.2258 0C36.2528 0 36.2799 0 36.3071 0C36.1319 0.884072 35.9545 1.76577 35.7367 2.6074C35.5137 2.71638 35.2618 2.16299 35.0036 2.03703C32.9781 6.74937 29.1945 9.82936 22.9443 10.3481C23.5616 8.0456 24.2776 5.84204 24.9406 3.58518C28.7365 3.52423 31.8988 2.82978 34.3517 1.42592C34.2999 1.19183 33.7515 0.885939 33.6997 0.65185C34.5347 0.427437 35.3954 0.228827 36.2258 0Z" fill="#6D6D6D"/>
<path fill-rule="evenodd" clip-rule="evenodd" d="M21.191 4.56296C21.2643 4.20172 21.4436 3.94642 21.5169 3.58518C22.1328 4.2866 22.6566 5.08019 23.1873 5.86666C22.2998 5.99771 21.4619 6.17832 20.5391 6.27407C20.6053 5.91928 20.7756 5.66856 20.8651 5.33703C14.7438 5.5443 10.8323 8.31415 7.09473 11.0407C7.09473 7.90369 7.09473 4.76666 7.09473 1.62963C8.27094 1.36889 9.32867 1.25024 10.6392 1.18149C15.1281 0.946209 18.4963 2.79244 21.191 4.56296Z" fill="#6D6D6D"/>
<path fill-rule="evenodd" clip-rule="evenodd" d="M22.7792 6.96655C22.6804 7.83212 22.2509 8.71959 22.0459 9.61469C21.7551 9.41659 21.5731 9.10985 21.3533 8.84062C19.2106 11.5414 17.3607 14.6866 16.3014 18.6184C15.2686 22.4521 15.3277 27.5866 15.4459 32.4294C12.2187 32.706 8.74658 32.7375 5.21997 32.7146C6.27125 20.4441 12.0413 12.8911 20.7422 8.27025C20.7578 7.96487 20.2062 7.66899 20.1718 7.4147C21.0365 7.26073 21.9342 7.13987 22.7792 6.96655Z" fill="#6D6D6D"/>
<path fill-rule="evenodd" clip-rule="evenodd" d="M19.1543 32.022C19.1543 29.2246 19.1543 26.4269 19.1543 23.6294C21.6422 23.2005 23.8514 22.8009 25.9987 21.8368C28.0239 20.9278 30.4452 19.4194 30.1541 16.2961C29.8735 13.2833 25.903 12.7347 23.0245 13.7702C23.1087 14.1073 23.4139 14.4397 23.4319 14.7072C22.494 14.6945 21.6763 14.5616 20.743 14.5443C21.1732 13.7116 21.6868 12.9622 22.1282 12.1406C22.3375 12.3928 22.4592 12.7328 22.6171 13.0369C24.2024 11.8123 26.0293 10.8661 28.6058 10.7146C33.3081 10.4385 36.0467 13.2652 36.3058 17.4368C36.4701 20.0821 35.6357 22.0862 34.5539 23.6294C33.4425 25.2149 32.0446 26.384 30.4393 27.459C27.2432 29.5996 23.4472 31.1347 19.1543 32.022Z" fill="#6D6D6D"/>
<path fill-rule="evenodd" clip-rule="evenodd" d="M9.78603 36.5037C11.333 36.3255 12.5382 36.9486 13.1268 37.6445C13.4675 38.0473 13.9348 39.0736 13.9416 39.8852C13.9569 41.7277 12.5695 43.1996 10.6416 43.3481C8.44329 43.5174 6.47637 42.0876 6.649 39.6406C6.77785 37.8142 8.08036 36.7001 9.78603 36.5037ZM8.80826 38.785C7.41917 40.5856 10.0159 42.6469 11.5786 41.2295C12.8341 40.0908 11.8149 37.9076 9.98974 38.1739C9.43447 38.2551 9.0566 38.4633 8.80826 38.785Z" fill="#6D6D6D"/>
<path fill-rule="evenodd" clip-rule="evenodd" d="M0.0475884 36.585C1.9624 36.585 3.87721 36.585 5.79202 36.585C5.79202 38.785 5.79202 40.9849 5.79202 43.1851C5.19703 43.1639 4.39394 43.2172 4.04017 43.1851C4.04017 41.4876 4.04017 39.7901 4.04017 38.0925C3.2661 38.0925 2.49203 38.0925 1.71795 38.0925C1.71795 39.7901 1.71795 41.4876 1.71795 43.1851C1.30291 43.2177 0.48589 43.1289 0.00684818 43.2257C0.0340086 41.0257 -0.047473 38.7172 0.0475884 36.585Z" fill="#6D6D6D"/>
<path fill-rule="evenodd" clip-rule="evenodd" d="M14.8372 36.585C16.2495 36.585 17.6618 36.585 19.0742 36.585C19.0742 37.074 19.0742 37.5629 19.0742 38.0518C18.3128 38.146 17.3773 38.0661 16.5483 38.0925C16.4535 38.3781 16.5343 38.8391 16.5075 39.1924C18.2728 39.0347 19.6469 39.5373 19.7668 40.9849C19.9752 43.5003 17.1208 43.253 14.7557 43.1851C14.7557 41.0257 14.7557 38.8666 14.7557 36.7074C14.754 36.6376 14.7859 36.6018 14.8372 36.585ZM17.8112 41.6775C18.5468 41.0325 17.4585 40.1642 16.5075 40.4961C16.5075 40.9444 16.5075 41.3924 16.5075 41.8405C17.019 41.7867 17.4841 41.9646 17.8112 41.6775Z" fill="#6D6D6D"/>
<path fill-rule="evenodd" clip-rule="evenodd" d="M24.3668 36.6256C24.3668 37.1009 24.3668 37.5764 24.3668 38.0515C23.7817 38.1452 23.0234 38.0661 22.3705 38.0923C22.2758 38.3642 22.3568 38.8117 22.3298 39.1514C22.9682 39.1514 23.6065 39.1514 24.2446 39.1514C24.2446 39.6402 24.2446 40.1293 24.2446 40.6182C23.6199 40.6182 22.9952 40.6182 22.3705 40.6182C22.2758 40.9037 22.3568 41.3648 22.3298 41.718C22.9962 41.7442 23.7681 41.6649 24.3668 41.7588C24.3668 42.2341 24.3668 42.7094 24.3668 43.1847C23.2644 43.1864 21.8156 43.1833 20.5779 43.1847C20.5779 41.0253 20.5779 38.8662 20.5779 36.7069C20.5762 36.6372 20.6083 36.6013 20.6594 36.5845C21.882 36.6117 23.2122 36.5311 24.3668 36.6256Z" fill="#6D6D6D"/>
<path fill-rule="evenodd" clip-rule="evenodd" d="M31.1741 36.6256C31.1741 38.3639 31.1741 40.1021 31.1741 41.8404C31.3513 41.935 31.7032 41.8545 31.9483 41.8812C31.9483 42.8184 31.9483 43.7552 31.9483 44.6924C31.4323 44.6924 30.9162 44.6924 30.4002 44.6924C30.4002 44.2035 30.4002 43.7145 30.4002 43.2256C29.164 43.1309 27.7522 43.2118 26.4483 43.185C26.3555 43.6082 26.4331 44.2017 26.4076 44.6924C25.8915 44.6924 25.3755 44.6924 24.8596 44.6924C24.8596 43.769 24.8596 42.8455 24.8596 41.9221C26.6145 41.5041 26.0829 38.7996 26.1633 36.7073C26.1615 36.6375 26.1935 36.6017 26.2446 36.5849C27.8743 36.6119 29.6122 36.5309 31.1741 36.6256ZM27.8333 37.9293C27.8333 37.9701 27.8333 38.0108 27.8333 38.0517C27.7999 39.1461 27.9386 40.3013 27.6296 41.1073C27.5025 41.439 27.2518 41.6084 27.1815 41.8813C27.9282 41.8813 28.6753 41.8813 29.4222 41.8813C29.4222 40.564 29.4222 39.2468 29.4222 37.9295C28.8926 37.9293 28.363 37.9293 27.8333 37.9293Z" fill="#6D6D6D"/>
<path fill-rule="evenodd" clip-rule="evenodd" d="M36.7563 36.5849C37.5903 38.7794 38.4206 40.9777 39.2417 43.185C38.6304 43.185 38.0195 43.185 37.4084 43.185C37.2552 42.8355 37.1359 42.4526 37.001 42.085C36.2269 42.085 35.4528 42.085 34.6787 42.085C34.4463 42.3823 34.364 42.8297 34.1898 43.185C33.7505 43.2024 32.7066 43.1504 32.438 43.2256C32.3767 42.9635 32.5477 42.6951 32.6417 42.4515C33.3523 40.6101 34.1421 38.573 34.8417 36.7071C34.8644 36.6484 34.9052 36.6076 34.9639 36.5847C35.5613 36.5849 36.1588 36.5849 36.7563 36.5849ZM35.1267 40.7813C35.5886 40.7544 36.1586 40.8353 36.5526 40.7406C36.2422 40.1276 36.1259 39.3204 35.7784 38.7443C35.5954 39.4573 35.3031 40.0614 35.1267 40.7813Z" fill="#6D6D6D"/>
<path fill-rule="evenodd" clip-rule="evenodd" d="M41.6009 36.585C41.6956 37.9569 41.6147 39.5045 41.6417 40.9444C41.3081 41.0102 40.3118 41.0063 39.9711 40.9444C39.9983 39.5049 39.917 37.9566 40.0119 36.585C40.5417 36.585 41.0713 36.585 41.6009 36.585Z" fill="#6D6D6D"/>
<path fill-rule="evenodd" clip-rule="evenodd" d="M40.6664 41.3515C42.1493 41.1438 42.2128 43.5639 40.6664 43.3886C39.5263 43.2594 39.497 41.5155 40.6664 41.3515Z" fill="#6D6D6D"/>
<path fill-rule="evenodd" clip-rule="evenodd" d="M9.04999 50.0293C8.83628 49.9444 8.70472 49.7772 8.52037 49.6626C8.76481 49.269 9.09057 48.9564 9.33518 48.5628C8.67043 48.8622 7.92114 48.2543 7.82778 47.748C7.44363 45.6658 10.8299 45.5458 10.5981 47.585C10.4708 48.7061 9.44959 49.1247 9.04999 50.0293ZM9.00925 48.0332C10.1281 48.281 10.1541 46.4641 9.00925 46.7702C8.25674 46.9714 8.57995 47.9379 9.00925 48.0332Z" fill="#6D6D6D"/>
<path fill-rule="evenodd" clip-rule="evenodd" d="M13.899 48.6036C13.9555 48.6964 14.1825 48.6187 14.3064 48.6442C14.3064 48.8479 14.3064 49.0516 14.3064 49.2554C14.1706 49.2554 14.0348 49.2554 13.899 49.2554C13.899 49.4591 13.899 49.6627 13.899 49.8665C13.7401 49.9523 13.4305 49.8869 13.2064 49.9073C13.2064 49.7036 13.2064 49.4999 13.2064 49.2962C12.7027 49.1751 11.918 49.335 11.4138 49.2147C11.5018 48.5467 11.957 48.1049 12.2694 47.6258C12.5815 47.1471 12.9041 46.672 13.2064 46.1591C13.3974 46.1328 13.6943 46.2123 13.8175 46.1184C14.0053 46.7862 13.8464 47.8007 13.899 48.6036ZM12.3101 48.6442C12.6089 48.6442 12.9076 48.6442 13.2064 48.6442C13.1794 48.1958 13.2606 47.6396 13.1657 47.2591C12.9136 47.7538 12.5715 48.1588 12.3101 48.6442Z" fill="#6D6D6D"/>
<path fill-rule="evenodd" clip-rule="evenodd" d="M23.9204 49.2555C24.3414 49.2555 24.7623 49.2555 25.1833 49.2555C25.1833 49.4726 25.1833 49.6901 25.1833 49.9074C24.3531 49.9091 23.3115 49.9052 22.6167 49.9074C22.7248 49.5246 23.1918 49.1547 23.5944 48.6852C23.9282 48.2959 24.4953 47.8089 24.45 47.2594C24.4013 46.6668 23.3661 46.5575 23.3093 47.3816C23.0723 47.3606 22.7472 47.4275 22.5759 47.3409C22.6138 45.7399 25.13 45.7523 25.1833 47.2596C25.2193 48.2793 24.3086 48.5628 23.9204 49.2555Z" fill="#6D6D6D"/>
<path fill-rule="evenodd" clip-rule="evenodd" d="M27.4649 46.1592C29.6814 45.8256 29.5884 50.4848 27.3427 49.9481C25.852 49.5916 25.8335 46.4047 27.4649 46.1592ZM27.7094 49.3368C28.606 49.2701 28.5841 46.5142 27.5057 46.8109C26.7309 47.0241 26.7394 49.4089 27.7094 49.3368Z" fill="#6D6D6D"/>
<path fill-rule="evenodd" clip-rule="evenodd" d="M31.2129 49.2554C31.6477 49.2554 32.0821 49.2554 32.5166 49.2554C32.4971 49.4665 32.5606 49.7611 32.4761 49.9072C31.6069 49.9072 30.7378 49.9072 29.8687 49.9072C30.0892 49.2431 31.6197 48.3547 31.7427 47.422C31.8556 46.5663 30.6186 46.5594 30.6427 47.3813C30.3984 47.3813 30.1538 47.3813 29.9096 47.3813C29.8347 45.7759 32.2362 45.7924 32.4762 47.0146C32.7142 48.2275 31.5979 48.5458 31.2129 49.2554Z" fill="#6D6D6D"/>
<path fill-rule="evenodd" clip-rule="evenodd" d="M34.7963 46.159C37.1268 45.8367 36.7788 50.7442 34.5111 49.9072C33.1359 49.3995 33.1899 46.3811 34.7963 46.159ZM34.9592 49.3366C35.9706 49.3366 35.8723 46.4821 34.7963 46.8107C34.0455 47.0402 34.0529 49.3366 34.9592 49.3366Z" fill="#6D6D6D"/>
<path fill-rule="evenodd" clip-rule="evenodd" d="M6.36281 46.2C6.36281 47.4222 6.36281 48.6442 6.36281 49.8666C6.19136 49.9532 5.86663 49.8863 5.62948 49.9073C5.62948 48.9024 5.62948 47.8975 5.62948 46.8925C5.53306 46.7987 5.26383 46.8779 5.09985 46.8518C5.09985 46.6345 5.09985 46.4171 5.09985 46.2C5.52084 46.2 5.94183 46.2 6.36281 46.2Z" fill="#6D6D6D"/>
<path fill-rule="evenodd" clip-rule="evenodd" d="M17.5653 46.2C17.5653 46.4171 17.5653 46.6345 17.5653 46.8518C17.1715 46.8518 16.7776 46.8518 16.3838 46.8518C16.2685 46.9538 16.2826 47.1852 16.2208 47.3407C17.1404 47.3631 17.6997 47.7812 17.7283 48.5629C17.7783 49.9389 16.0015 50.4193 15.1208 49.4999C15.1266 49.2613 15.278 49.1684 15.2838 48.9297C15.6291 49.192 16.4964 49.6064 16.8727 49.0927C17.5174 48.2124 16.057 47.5211 15.4468 48.1148C15.5429 47.4369 15.7226 46.8425 15.8542 46.2001C16.4245 46.1999 16.9949 46.2 17.5653 46.2Z" fill="#6D6D6D"/>
<path fill-rule="evenodd" clip-rule="evenodd" d="M21.6412 47.9924C21.6412 48.1826 21.6412 48.3727 21.6412 48.5628C20.6877 48.5608 19.5266 48.5655 18.708 48.5628C18.708 48.3727 18.708 48.1826 18.708 47.9924C19.6856 47.9924 20.6634 47.9924 21.6412 47.9924Z" fill="#6D6D6D"/>
</svg>
