<svg width="170" height="57" viewBox="0 0 170 57" fill="none" xmlns="http://www.w3.org/2000/svg">
<path d="M52.2588 8.6521H48.2354H43.2693H28.4007C25.9846 8.6521 23.8262 10.1631 22.9997 12.4337L13.7568 37.8302C12.9273 40.094 10.7731 41.6001 8.36133 41.6001H12.3847H16.634H32.2194C34.6355 41.6001 36.7939 40.0891 37.6204 37.8186L46.8645 12.4209C47.694 10.1577 49.8476 8.6521 52.2588 8.6521Z" fill="#6D6D6D"/>
<path d="M21.3132 11.8197C22.3936 8.85062 25.2421 6.85661 28.4012 6.85661H30.7826L32.1578 3.07811C32.8357 1.22966 34.594 0 36.5636 0H33.2784H29.2228H17.0797C15.1064 0 13.3438 1.23392 12.6684 3.08846L5.11932 23.8288C4.44206 25.6779 2.68254 26.9082 0.712891 26.9082H3.99868H7.46901H15.8214L21.3132 11.8197Z" fill="#6D6D6D"/>
<path d="M58.8541 20.0582H59.5679C60.0521 20.0582 60.4985 20.1246 60.9059 20.2574C61.3134 20.3914 61.6642 20.5887 61.959 20.8506C62.2531 21.1131 62.4815 21.4341 62.6423 21.8129C62.8043 22.1923 62.8847 22.6247 62.8847 23.1077C62.8847 23.6004 62.7958 24.0383 62.618 24.4214C62.4407 24.8051 62.2008 25.1303 61.8981 25.3965C61.5954 25.6627 61.2421 25.8636 60.8389 26.0019C60.4351 26.1389 60.0113 26.2071 59.5673 26.2071H58.8535V27.2608H57.0501V26.2071H56.3357C55.8521 26.2071 55.4057 26.1414 54.9982 26.008C54.5908 25.8752 54.2418 25.6767 53.9513 25.4148C53.6601 25.1523 53.4348 24.8313 53.2728 24.4525C53.1114 24.0731 53.031 23.6412 53.031 23.1577C53.031 22.6649 53.1199 22.227 53.2972 21.8439C53.4744 21.4609 53.715 21.135 54.0177 20.8689C54.3204 20.6027 54.6712 20.4017 55.0707 20.2635C55.4696 20.1264 55.8917 20.0582 56.3351 20.0582H57.0495V18.9802H58.8529V20.0582H58.8541ZM56.3966 21.6198C55.8886 21.6198 55.5013 21.7569 55.2345 22.0315C54.9684 22.3056 54.8356 22.6765 54.8356 23.1455C54.8356 23.6205 54.9745 23.9884 55.2534 24.2466C55.5317 24.5049 55.913 24.634 56.3972 24.634H57.0513V21.6198H56.3966ZM59.5082 24.6455C60.0161 24.6455 60.4035 24.5085 60.6702 24.2338C60.9364 23.9598 61.0692 23.5889 61.0692 23.1205C61.0692 22.6442 60.9303 22.277 60.6514 22.0187C60.373 21.7605 59.9918 21.6314 59.5076 21.6314H58.8535V24.6455H59.5082Z" fill="#6D6D6D"/>
<path d="M70.4516 19.3012C70.9845 19.515 71.4383 19.8116 71.814 20.191C72.1892 20.5704 72.4822 21.0156 72.6911 21.5285C72.9012 22.0407 73.0059 22.5986 73.0059 23.2046C73.0059 23.7856 72.9012 24.3325 72.6911 24.8447C72.4815 25.3569 72.1868 25.8046 71.8073 26.1883C71.4279 26.5713 70.9742 26.874 70.4455 27.0963C69.9169 27.3186 69.3334 27.4295 68.6963 27.4295C68.0666 27.4295 67.4898 27.3223 66.9648 27.1091C66.4404 26.8941 65.9867 26.5987 65.6036 26.2193C65.2199 25.8399 64.9233 25.3922 64.7144 24.8758C64.5043 24.3593 64.3989 23.8014 64.3989 23.2052C64.3989 22.6247 64.5043 22.0748 64.7144 21.5583C64.9239 21.0418 65.2205 20.5942 65.6036 20.216C65.9867 19.8353 66.441 19.5357 66.9648 19.3134C67.4898 19.0917 68.0666 18.9802 68.6963 18.9802C69.334 18.9802 69.9199 19.0874 70.4516 19.3012ZM67.65 20.8086C67.3394 20.9456 67.0769 21.1308 66.8631 21.3659C66.65 21.6003 66.4861 21.8744 66.3734 22.1887C66.2602 22.5029 66.2041 22.8422 66.2041 23.2058C66.2041 23.5688 66.2602 23.9098 66.3734 24.2284C66.4861 24.5475 66.6518 24.8234 66.8698 25.0579C67.0872 25.2917 67.3497 25.4757 67.6561 25.6078C67.963 25.7418 68.3102 25.8076 68.6976 25.8076C69.0928 25.8076 69.4461 25.74 69.7567 25.6017C70.0673 25.4653 70.3298 25.2771 70.5436 25.0402C70.7573 24.8015 70.9187 24.5256 71.0278 24.2101C71.1368 23.8958 71.1916 23.5608 71.1916 23.2058C71.1916 22.8343 71.1349 22.4895 71.0223 22.1698C70.909 21.8525 70.7458 21.5754 70.532 21.3421C70.3176 21.1076 70.0557 20.9261 69.7451 20.797C69.4345 20.6679 69.0855 20.6027 68.6982 20.6027C68.3096 20.6027 67.9606 20.6715 67.65 20.8086Z" fill="#6D6D6D"/>
<path d="M76.6554 22.3216H80.2024V19.1497H82.0302V27.2603H80.2024V24.0043H76.6554V27.2603H74.8276V19.1497H76.6554V22.3216Z" fill="#6D6D6D"/>
<path d="M91.723 25.6267H92.8979V26.1225L92.7401 28.9551H91.1055L91.033 27.2608H85.5492L85.4523 28.9551H83.8061L83.7092 26.1353V25.6395H84.0479C84.2172 25.6395 84.3871 25.578 84.5564 25.4574C84.7257 25.3362 84.867 25.1468 84.9803 24.8886C85.1983 24.4038 85.3555 23.7789 85.4523 23.0115C85.5491 22.2447 85.5973 21.3981 85.5973 20.4699V19.1501H91.7224V25.6267H91.723ZM87.1716 23.7131C87.034 24.5292 86.8489 25.1663 86.6144 25.6267H89.9075V20.772H87.3891C87.3812 21.9183 87.3087 22.8994 87.1716 23.7131Z" fill="#6D6D6D"/>
<path d="M60.5398 41.7937H58.7121V35.3665H55.274V41.7944H53.4463V33.6843H60.5398V41.7937Z" fill="#6D6D6D"/>
<path d="M67.7068 33.8957C68.1021 34.037 68.4432 34.2349 68.7294 34.4889C69.0163 34.7422 69.2361 35.0498 69.389 35.4091C69.5419 35.7679 69.6186 36.1698 69.6186 36.6138C69.6186 37.0822 69.5321 37.4988 69.3585 37.8666C69.185 38.2345 68.9462 38.5445 68.6441 38.7991C68.3414 39.053 67.9845 39.2473 67.5734 39.3795C67.1611 39.5135 66.7177 39.5793 66.2415 39.5793H64.5946V41.7944H62.7791V33.6843H66.3858C66.8712 33.6843 67.3109 33.755 67.7068 33.8957ZM66.2421 37.9696C66.7256 37.9696 67.1051 37.8484 67.3798 37.606C67.6538 37.3642 67.7915 37.0365 67.7915 36.6254C67.7915 36.2222 67.6685 35.9019 67.4224 35.6631C67.1757 35.4244 66.8067 35.3062 66.3145 35.3062H64.5958V37.9696H66.2421Z" fill="#6D6D6D"/>
<path d="M77.3892 35.3184H73.1162V36.844H76.9288V38.4294H73.1162V40.1603H77.5951V41.795H71.325V33.6843H77.3898V35.3184H77.3892Z" fill="#6D6D6D"/>
<path d="M83.6835 36.6371C83.8449 36.5013 83.9259 36.3113 83.9259 36.0695C83.9259 35.7619 83.8193 35.5299 83.6049 35.3733C83.3911 35.2156 83.0415 35.1364 82.5579 35.1364C81.7991 35.1364 81.0889 35.391 80.4275 35.8995L79.4829 34.6516C79.9348 34.2649 80.4214 33.9786 80.9422 33.7922C81.4623 33.6071 82.0378 33.5139 82.667 33.5139C83.1512 33.5139 83.583 33.5712 83.9618 33.6832C84.3412 33.7959 84.664 33.953 84.9302 34.1552C85.1969 34.3574 85.4004 34.598 85.5417 34.8763C85.6823 35.1541 85.753 35.4635 85.753 35.8027C85.753 36.1499 85.6823 36.4611 85.5417 36.7406C85.4004 37.019 85.1884 37.2376 84.9064 37.3996V37.5092C85.2938 37.6384 85.5959 37.8582 85.8139 38.1688C86.0319 38.4801 86.141 38.8607 86.141 39.3132C86.141 39.6927 86.0666 40.0435 85.9168 40.3663C85.7676 40.6884 85.5459 40.9674 85.2511 41.2C84.957 41.4351 84.5897 41.6197 84.1494 41.7579C83.7097 41.8956 83.1956 41.9632 82.6061 41.9632C82.251 41.9632 81.916 41.9419 81.6018 41.8974C81.2869 41.8529 80.9884 41.7823 80.7058 41.6855C80.4233 41.5886 80.1528 41.4656 79.8946 41.317C79.6364 41.1672 79.3824 40.9838 79.1321 40.7652L80.0883 39.4344C80.5079 39.7651 80.9257 39.999 81.3411 40.1354C81.7571 40.2731 82.2187 40.3419 82.7273 40.3419C83.2602 40.3419 83.6573 40.2426 83.9198 40.0453C84.1817 39.8486 84.3132 39.5873 84.3132 39.2651C84.3132 38.6987 83.9453 38.4167 83.2115 38.4167H81.1657V36.8436H83.0178C83.3004 36.8442 83.5221 36.7747 83.6835 36.6371Z" fill="#6D6D6D"/>
<path d="M89.7471 39.0836L93.6688 33.6838H95.2669V41.7939H93.4629V36.698L89.7349 41.7939H87.9553V33.6844H89.7465V39.0836H89.7471Z" fill="#6D6D6D"/>
<path d="M104.956 40.1597H106.13V40.656L105.972 43.4887H104.338L104.266 41.7937H98.7817L98.6855 43.4887H97.0392L96.9424 40.6682V40.1725H97.281C97.4503 40.1725 97.6202 40.1122 97.7896 39.9897C97.9589 39.8698 98.1008 39.6804 98.2135 39.4221C98.4309 38.9367 98.588 38.3124 98.6855 37.545C98.7817 36.7783 98.8298 35.9311 98.8298 35.0023V33.6831H104.956V40.1597ZM100.404 38.2473C100.267 39.0628 100.081 39.7005 99.8475 40.1597H103.14V35.3062H100.622C100.614 36.4518 100.541 37.4324 100.404 38.2473Z" fill="#6D6D6D"/>
<path d="M113.916 35.3184H109.643V36.844H113.455V38.4294H109.643V40.1603H114.121V41.795H107.851V33.6843H113.916V35.3184Z" fill="#6D6D6D"/>
<path d="M117.884 36.8557H121.43V33.6838H123.259V41.7939H121.43V38.5379H117.884V41.7939H116.056V33.6844H117.884V36.8557Z" fill="#6D6D6D"/>
<path d="M132.28 35.3301H129.508V41.7939H127.704V35.3301H124.931V33.6838H132.279V35.3301H132.28Z" fill="#6D6D6D"/>
<path d="M139.103 35.3732C138.735 35.2392 138.326 35.1722 137.874 35.1722C137.479 35.1722 137.121 35.2356 136.802 35.3604C136.484 35.4859 136.211 35.6631 135.985 35.8939C135.759 36.1223 135.586 36.3952 135.465 36.7101C135.344 37.0255 135.283 37.3684 135.283 37.7387C135.283 38.1273 135.346 38.4781 135.472 38.7924C135.596 39.1066 135.772 39.3746 135.998 39.5975C136.223 39.818 136.494 39.991 136.808 40.1176C137.123 40.2419 137.47 40.3052 137.849 40.3052C138.31 40.3052 138.739 40.2261 139.139 40.0683C139.538 39.9112 139.895 39.684 140.211 39.3844L141.239 40.6554C140.319 41.527 139.157 41.9624 137.752 41.9624C137.123 41.9624 136.547 41.8638 136.021 41.6671C135.497 41.4691 135.046 41.1859 134.671 40.8193C134.296 40.452 134.003 40.0099 133.794 39.4934C133.584 38.9763 133.479 38.4001 133.479 37.7625C133.479 37.1815 133.582 36.6321 133.788 36.115C133.993 35.5985 134.29 35.1472 134.678 34.7599C135.065 34.3719 135.532 34.068 136.082 33.8463C136.63 33.6234 137.252 33.5132 137.947 33.5132C138.576 33.5132 139.153 33.6076 139.678 33.797C140.201 33.9876 140.67 34.2641 141.081 34.6271L140.078 35.9457C139.794 35.6978 139.469 35.5054 139.103 35.3732Z" fill="#6D6D6D"/>
<path d="M144.712 36.7711L145.595 36.6742L147.883 33.6838H150.123L147.109 37.4727L150.413 41.7939H148.077L145.608 38.3321H144.712V41.7939H142.92V33.6844H144.712V36.7711Z" fill="#6D6D6D"/>
<path d="M153.855 39.0836L157.777 33.6838H159.375V41.7939H157.571V36.698L153.843 41.7939H152.063V33.6844H153.855V39.0836H153.855Z" fill="#6D6D6D"/>
<path d="M165.178 36.5779H165.299L166.909 33.6843H169.149L166.558 37.679L169.403 41.7944H167.054L165.239 38.6718H165.118L163.327 41.7944H160.99L163.835 37.5816L161.244 33.6843H163.509L165.178 36.5779Z" fill="#6D6D6D"/>
<path d="M59.5836 49.8644H55.2618V56.3282H53.4463V48.2188H59.5836V49.8644Z" fill="#6D6D6D"/>
<path d="M66.1464 48.4293C66.5417 48.5712 66.8827 48.7685 67.169 49.0231C67.4558 49.2777 67.6757 49.5846 67.8286 49.9439C67.9815 50.3027 68.0588 50.7046 68.0588 51.1486C68.0588 51.6158 67.9717 52.0336 67.7987 52.4002C67.6252 52.7687 67.3864 53.0787 67.0843 53.3327C66.7816 53.5872 66.4247 53.7809 66.0136 53.9143C65.6019 54.0477 65.1579 54.1135 64.6816 54.1135H63.0348V56.3292H61.2192V48.2197H64.8266C65.3114 48.2185 65.7511 48.2886 66.1464 48.4293ZM64.6823 52.5025C65.1658 52.5025 65.5453 52.3819 65.82 52.1389C66.094 51.8978 66.2317 51.5707 66.2317 51.1596C66.2317 50.7552 66.1086 50.4354 65.8626 50.1973C65.6159 49.9586 65.2468 49.8398 64.7547 49.8398H63.036V52.5025H64.6823Z" fill="#6D6D6D"/>
<path d="M77.3139 56.3286H75.304L74.6871 54.7177H71.2125L70.6071 56.3286H68.6338L71.9628 48.207H73.9599L77.3139 56.3286ZM74.0932 53.1214L73.0159 50.0342H72.8947L71.8057 53.1214H74.0932Z" fill="#6D6D6D"/>
<path d="M80.7926 51.3894H84.3397V48.2188H86.1674V56.3282H84.3397V53.0716H80.7926V56.3282H78.9648V48.2188H80.7926V51.3894Z" fill="#6D6D6D"/>
<path d="M95.1905 49.8644H92.4181V56.3282H90.6142V49.8644H87.8418V48.2188H95.1899V49.8644H95.1905Z" fill="#6D6D6D"/>
<path d="M102.438 48.3689C102.971 48.5833 103.425 48.8799 103.8 49.2594C104.175 49.6376 104.468 50.084 104.677 50.5962C104.887 51.1084 104.993 51.6681 104.993 52.2729C104.993 52.8545 104.887 53.4009 104.677 53.9131C104.468 54.4259 104.174 54.8729 103.794 55.2566C103.415 55.6397 102.961 55.9424 102.432 56.1641C101.904 56.387 101.321 56.4972 100.684 56.4972C100.054 56.4972 99.4772 56.3907 98.9522 56.1763C98.4279 55.9631 97.9741 55.6653 97.5904 55.2871C97.2073 54.9076 96.9107 54.4594 96.7012 53.9429C96.4911 53.4258 96.3857 52.8704 96.3857 52.2729C96.3857 51.6919 96.4911 51.1437 96.7012 50.6273C96.9107 50.1102 97.2073 49.6619 97.5904 49.2825C97.9741 48.9043 98.4279 48.6028 98.9522 48.3817C99.4766 48.1588 100.054 48.0486 100.684 48.0486C101.321 48.0492 101.906 48.1552 102.438 48.3689ZM99.6368 49.8763C99.3262 50.0146 99.0637 50.1997 98.8499 50.433C98.6362 50.6669 98.4729 50.9421 98.3597 51.2564C98.2458 51.5719 98.1903 51.9105 98.1903 52.2735C98.1903 52.6365 98.2464 52.9776 98.3597 53.2973C98.4729 53.6152 98.638 53.8924 98.8554 54.1256C99.0728 54.3589 99.3353 54.5428 99.6423 54.6768C99.9493 54.809 100.296 54.8754 100.684 54.8754C101.078 54.8754 101.432 54.8065 101.742 54.6707C102.053 54.5325 102.315 54.3455 102.529 54.1067C102.743 53.8686 102.904 53.5921 103.013 53.2778C103.122 52.9636 103.177 52.6286 103.177 52.2735C103.177 51.902 103.121 51.5567 103.008 51.2388C102.895 50.9196 102.732 50.6431 102.518 50.4092C102.303 50.1754 102.041 49.9939 101.731 49.8648C101.419 49.7356 101.071 49.6717 100.684 49.6717C100.296 49.6711 99.9474 49.7393 99.6368 49.8763Z" fill="#6D6D6D"/>
<path d="M112.487 48.8118C112.975 49.2059 113.219 49.7473 113.219 50.4331C113.219 50.7724 113.149 51.075 113.007 51.3412C112.866 51.6073 112.674 51.8053 112.433 51.9344V52.0434C112.828 52.1732 113.144 52.4052 113.383 52.739C113.621 53.0745 113.74 53.4643 113.74 53.9083C113.74 54.2396 113.682 54.5515 113.565 54.8469C113.448 55.1404 113.266 55.3962 113.02 55.6155C112.774 55.8323 112.461 56.0065 112.082 56.1356C111.702 56.2641 111.255 56.3287 110.738 56.3287H106.816V48.2192H110.399C111.302 48.2186 111.999 48.416 112.487 48.8118ZM110.471 51.4137C110.778 51.4137 111.018 51.3388 111.192 51.1889C111.365 51.0403 111.452 50.8363 111.452 50.5781C111.452 50.0378 111.105 49.768 110.411 49.768H108.62V51.4137H110.471ZM110.762 54.7793C111.561 54.7793 111.961 54.4601 111.961 53.8231C111.961 53.5155 111.856 53.2853 111.646 53.1269C111.436 52.9692 111.137 52.8906 110.75 52.8906H108.619V54.7793H110.762Z" fill="#6D6D6D"/>
</svg>
